<?xml version="1.0" encoding="utf-8"?>
<!-- Generator: Adobe Illustrator 16.0.0, SVG Export Plug-In . SVG Version: 6.00 Build 0)  -->
<!DOCTYPE svg PUBLIC "-//W3C//DTD SVG 1.1//EN" "http://www.w3.org/Graphics/SVG/1.1/DTD/svg11.dtd">
<svg version="1.1" id="Ebene_1_xA0_Bild_1_" xmlns="http://www.w3.org/2000/svg" xmlns:xlink="http://www.w3.org/1999/xlink"
	 x="0px" y="0px" width="1984.252px" height="1984.251px" viewBox="0 0 1984.252 1984.251"
	 enable-background="new 0 0 1984.252 1984.251" xml:space="preserve">
<circle display="none" fill="#E0E0E0" cx="994.621" cy="991.674" r="986.928"/>
<circle fill="#CCCCCC" cx="990.8" cy="992.126" r="986.928"/>
<g>
	<path d="M994.263,1978.536c-8.314,0-16.63,0.108-24.942-0.022c-19.19-0.304-38.334-1.496-57.445-3.237
		c-9.55-0.87-19.118-1.573-28.646-2.64c-11.115-1.243-22.229-2.577-33.281-4.277c-13.26-2.04-26.47-4.423-39.674-6.806
		c-31.472-5.678-62.503-13.245-93.173-22.261c-127.068-37.353-242.034-97.812-344.814-181.317
		c-150.616-122.37-259.553-284.256-316.878-461.742c-12.883-39.889-23.275-80.398-30.921-121.62
		c-3.849-20.75-7.122-41.575-9.632-62.531c-2.587-21.595-4.404-43.24-5.762-64.95c-1.72-27.485-1.749-54.976-1.225-82.475
		c0.341-17.903,1.373-35.785,3.018-53.625c0.881-9.55,1.588-19.12,2.641-28.651c1.228-11.119,2.518-22.241,4.194-33.299
		c2.539-16.745,5.384-33.438,8.654-50.066c9.951-50.596,23.762-100.108,41.736-148.42
		C128.607,487.99,225.002,350.41,357.223,238.162C462.484,148.801,581.528,84.585,713.917,45.215
		c30.646-9.113,61.678-16.612,93.074-22.676c17.264-3.334,34.601-6.196,51.999-8.634c13.604-1.906,27.293-3.238,40.968-4.587
		c11.769-1.162,23.571-1.99,35.359-2.958c1.593-0.131,3.188-0.27,4.786-0.317c25.57-0.767,51.137-1.866,76.729-0.947
		c4.793,0.172,9.59,0.275,14.386,0.381c18.23,0.404,36.384,1.913,54.546,3.466c14.342,1.227,28.637,2.836,42.878,4.792
		c16.14,2.217,32.251,4.767,48.263,7.767c31.1,5.828,61.857,13.148,92.265,21.959c108.494,31.438,208.756,79.922,300.307,146.038
		c147.519,106.534,257.929,243.212,330.956,409.957c25.596,58.443,44.826,118.973,58.519,181.264
		c5.491,24.979,9.991,50.158,13.37,75.509c2.872,21.547,5.083,43.167,6.688,64.862c1.487,20.113,2.094,40.247,2.424,60.382
		c0.431,26.224-0.337,52.441-2.366,78.605c-0.866,11.156-1.597,22.327-2.709,33.459c-1.145,11.449-2.445,22.894-4.104,34.277
		c-2.027,13.913-4.377,27.781-6.801,41.632c-6.842,39.087-16.365,77.533-28.192,115.398
		c-42.474,135.99-110.988,257.351-205.91,363.53c-116.491,130.308-257.729,223.511-423.319,279.603
		c-39.381,13.34-79.527,23.908-120.354,31.895c-18.822,3.682-37.707,6.904-56.707,9.519c-17.42,2.396-34.881,4.306-52.401,5.824
		C1050.512,1977.646,1022.422,1978.917,994.263,1978.536z M994.458,1949.879c0.002,0.163,0.004,0.325,0.006,0.488
		c15.984-0.371,31.99-0.335,47.946-1.217c19.463-1.076,38.939-2.222,58.294-4.776c12.355-1.631,24.776-2.812,37.095-4.675
		c23.698-3.583,47.269-7.936,70.628-13.314c63.408-14.602,124.807-35.182,183.957-62.356
		c132.931-61.069,246.225-147.863,339.772-260.279c73.972-88.891,129.948-188.054,167.939-297.323
		c22.863-65.761,38.319-133.206,46.33-202.381c2.024-17.479,3.722-34.984,4.735-52.53c1.088-18.829,1.66-37.705,1.86-56.566
		c0.264-24.949-0.987-49.861-2.734-74.757c-1.501-21.385-3.787-42.679-6.774-63.887c-3.299-23.42-7.552-46.681-12.59-69.805
		c-14.961-68.667-37.298-134.827-66.916-198.545c-77.79-167.354-202.797-309.149-359.803-408.063
		c-79.248-49.927-164.079-87.238-254.304-112.293c-28.029-7.784-56.405-14.119-85.024-19.309
		c-12.259-2.224-24.572-4.21-36.922-5.851c-13.619-1.809-27.256-3.503-40.955-4.726c-17.2-1.535-34.39-3.055-51.66-3.504
		c-5.115-0.133-10.225-0.468-15.34-0.539c-13.428-0.186-26.865-0.658-40.283-0.325c-26.527,0.658-53.038,1.704-79.459,4.537
		c-15.574,1.67-31.111,3.524-46.622,5.709c-22.799,3.212-45.416,7.415-67.869,12.425c-62.562,13.96-123.141,33.962-181.69,60.104
		C370.578,220.38,187.426,414.784,97.258,654.119c-17.951,47.648-31.99,96.41-42.063,146.329
		c-3.289,16.298-6.189,32.659-8.69,49.085c-1.779,11.688-3.09,23.451-4.443,35.199c-0.951,8.256-1.774,16.533-2.381,24.82
		c-1.12,15.305-2.51,30.611-2.943,45.94c-0.895,31.649-0.907,63.296,1.125,94.938c1.497,23.309,3.638,46.541,6.688,69.679
		c2.799,21.228,6.462,42.324,10.71,63.326c8.504,42.042,19.771,83.315,33.925,123.791
		c39.925,114.175,99.266,217.214,178.144,308.888c91.243,106.043,200.434,188.452,327.468,247.08
		c82.062,37.872,167.933,63.137,257.266,76.657c22.127,3.349,44.369,5.908,66.684,7.524c16.255,1.177,32.522,2.552,48.85,2.508
		C976.55,1949.86,985.504,1949.879,994.458,1949.879z"/>
	<path d="M1932.032,991.986c-0.543,17.903-0.882,35.816-1.699,53.708c-0.584,12.772-1.749,25.521-2.772,38.27
		c-0.64,7.966-1.461,15.917-2.265,23.868c-1.48,14.646-4.249,29.099-6.713,43.593c-1.875,11.027-4.003,22.013-6.063,33.008
		c-2.828,15.094-6.799,29.911-10.863,44.706c-7.538,27.433-15.446,54.755-25.145,81.519c-8.825,24.354-19.04,48.144-29.347,71.897
		c-10.581,24.384-22.673,47.974-36.453,70.696c-8.29,13.67-16.596,27.331-24.987,40.938c-18.827,30.529-39.792,59.511-62.33,87.427
		c-28.996,35.917-60.466,69.469-94.306,100.812c-9.381,8.688-19.198,16.907-28.895,25.25c-5.575,4.797-11.353,9.357-16.965,14.112
		c-17.597,14.909-36.422,28.188-55.41,41.201c-46.514,31.875-95.129,60.078-146.873,82.69c-20.205,8.83-40.264,17.993-60.875,25.878
		c-32.594,12.468-65.982,22.277-99.938,30.203c-22.722,5.304-45.675,9.463-68.603,13.762c-14.145,2.652-28.34,4.949-42.601,6.767
		c-16.808,2.141-33.677,3.792-50.626,4.445c-6.381,0.246-12.785,0.118-19.096,1.53c-2.147,0.48-4.453,0.331-6.688,0.333
		c-24.628,0.02-49.255,0.01-73.883,0.015c-3.2,0-6.38-0.013-9.521-0.861c-1.525-0.412-3.157-0.481-4.749-0.588
		c-10.847-0.726-21.692-1.493-32.547-2.107c-16.93-0.958-33.749-2.801-50.511-5.413c-24.323-3.792-48.461-8.515-72.539-13.597
		c-44.188-9.327-87.342-22.066-129.183-39.123c-15.686-6.395-31.342-12.867-46.938-19.48c-24.45-10.37-48.17-22.221-71.255-35.361
		c-36.431-20.738-72.073-42.697-105.736-67.75c-12.062-8.978-23.832-18.322-35.279-28.074c-6.087-5.185-12.21-10.327-18.307-15.5
		c-32.501-27.572-62.658-57.533-90.689-89.613c-11.361-13.002-22.358-26.333-33.219-39.759
		c-12.475-15.422-24.042-31.544-35.145-47.972c-22.938-33.939-44.187-68.918-62.575-105.543
		c-18.512-36.87-35.389-74.489-49.572-113.264c-11.768-32.17-20.865-65.123-28.167-98.566c-5.66-25.92-10.538-52.003-14.884-78.174
		c-1.989-11.975-3.18-24.082-4.722-36.132c-2.031-15.879-2.517-31.872-3.529-47.827c-0.081-1.276,0.041-2.593-0.225-3.827
		c-1.498-6.956-1.082-14.002-1.091-21.025c-0.025-19.191-0.014-38.383-0.006-57.575c0.002-5.427,0.249-10.806,0.942-16.231
		c1.094-8.551,1.47-17.203,1.934-25.824c1.271-23.647,3.6-47.164,7.61-70.525c5.573-32.458,11.769-64.785,19.897-96.706
		c7.974-31.313,17.778-62.043,29.886-92.033c8.258-20.453,16.58-40.875,25.49-61.054c6.977-15.802,14.579-31.294,22.854-46.456
		c21.005-38.489,43.676-75.944,69.357-111.523c10.674-14.788,21.868-29.171,33.694-43.059c7.258-8.522,14.382-17.161,21.743-25.594
		c27.171-31.129,56.238-60.37,87.586-87.306c10.188-8.753,20.488-17.383,30.92-25.843c24.119-19.558,49.43-37.477,75.58-54.203
		c24.519-15.683,49.658-30.321,75.209-44.257c17.699-9.653,35.947-18.156,54.481-26.046c24.41-10.391,49.077-20.15,74.042-29.124
		C720.492,94.55,752.347,86.3,784.345,78.54c21.446-5.201,43.096-9.339,64.869-12.807c12.302-1.96,24.661-3.623,37.094-4.701
		c16.879-1.464,33.728-3.271,50.599-4.834c4.454-0.413,8.939-0.643,13.412-0.654c28.145-0.07,56.29-0.101,84.434-0.046
		c14.41,0.028,28.725,1.587,43.037,3.086c2.543,0.267,5.092,0.536,7.645,0.647c15.043,0.655,29.886,2.952,44.742,5.215
		c18.646,2.84,37.167,6.331,55.673,9.94c50.005,9.753,98.771,23.697,146.013,42.858c20.731,8.409,41.471,16.806,61.778,26.206
		c9.569,4.429,19.136,8.9,28.472,13.795c45.087,23.641,88.58,49.881,129.617,80.09c12.109,8.914,23.949,18.171,35.41,27.905
		c10.238,8.696,20.559,17.302,30.606,26.214c33.065,29.329,64.409,60.353,92.397,94.646c1.213,1.487,2.439,2.964,3.693,4.416
		c28.301,32.751,53.166,67.994,75.92,104.763c19.36,31.285,37.523,63.236,53.456,96.424c12.325,25.674,23.315,51.894,32.229,78.958
		c6.398,19.427,12.777,38.862,19.075,58.322c7.984,24.674,13.653,49.926,18.559,75.361c2.3,11.925,4.661,23.841,6.786,35.798
		c3.189,17.944,5.991,35.94,7.193,54.162c0.799,12.123,2.221,24.205,3.012,36.328
		C1931.399,951.057,1933.002,971.482,1932.032,991.986z M358.341,927.092c1.514-3.144,1.659-6.356,2.084-9.494
		c0.903-6.652,1.58-13.339,2.642-19.965c4.252-26.529,9.667-52.811,16.829-78.724c20.49-74.146,53.248-142.333,99.013-204.215
		c31.342-42.379,67.468-80.251,107.771-114.168c96.66-81.344,207.828-128.974,333.301-143.27
		c16.525-1.883,33.126-3.032,49.735-3.724c34.566-1.438,69.075-0.162,103.442,3.785c18.094,2.078,36.065,5.045,53.933,8.698
		c47.83,9.777,93.756,25.16,137.875,46.019c49.12,23.222,94.375,52.51,136.343,86.935c47.793,39.203,89.327,84.159,123.889,135.464
		c35.632,52.895,62.3,110.063,81.008,170.976c3.563,11.603,6.581,23.373,9.877,35.058c0.691,2.451,1.462,4.882,2.318,7.279
		c0.073,0.205,1.375,0.331,1.579,0.073c1.975-2.481,3.941-4.982,5.715-7.61c31.117-46.126,62.204-92.274,93.311-138.408
		c1.604-2.378,3.311-4.686,4.998-7.006c0.547-0.753,2.045-0.838,2.555-0.151c2.088,2.819,4.216,5.612,6.207,8.499
		c57.372,83.186,114.729,166.383,172.091,249.577c1.634,2.369,3.256,4.746,4.938,7.079c0.354,0.492,0.917,0.859,1.444,1.186
		c0.208,0.129,0.603,0.052,0.874-0.042c0.254-0.089,0.637-0.311,0.652-0.5c0.129-1.585,0.324-3.182,0.246-4.763
		c-0.691-14.055-1.113-28.133-2.239-42.154c-1.612-20.074-3.762-40.097-6.647-60.048c-3.344-23.113-7.496-46.067-12.674-68.823
		c-14.955-65.723-37.254-128.882-66.565-189.577c-66.938-138.607-161.904-253.932-286.207-344.944
		c-81.963-60.011-171.185-105.657-268.168-136.038c-32.966-10.327-66.405-18.796-100.309-25.362
		c-15.368-2.977-30.83-5.545-46.325-7.768c-13.281-1.905-26.596-3.684-40-4.663c-12.434-0.908-24.833-2.411-37.278-3.038
		c-15.646-0.788-31.324-1.262-46.99-1.313c-23.985-0.08-47.954,0.505-71.894,2.374c-18.495,1.444-36.923,3.303-55.313,5.729
		c-19.654,2.595-39.171,5.92-58.61,9.791c-45.535,9.066-90.063,21.689-133.645,37.658c-82.8,30.34-159.567,71.924-230.689,124
		c-70.136,51.354-131.901,111.287-184.642,180.439c-58.436,76.62-103.416,160.565-136.278,251.067
		c-14.424,39.724-25.621,80.374-34.167,121.75c-3.751,18.159-6.887,36.44-9.413,54.807c-1.829,13.298-3.212,26.663-4.544,40.022
		c-1.015,10.179-1.556,20.404-2.454,30.597c-1.604,18.187-1.464,36.424-1.743,54.65c-0.01,0.637-0.044,1.313,0.145,1.903
		c0.17,0.533,0.545,1.08,0.982,1.43c0.595,0.476,1.151,0.202,1.604-0.466c1.614-2.377,3.317-4.695,4.89-7.099
		c28.36-43.35,56.706-86.709,85.056-130.066c15.75-24.087,31.499-48.175,47.254-72.258c1.575-2.408,3.175-4.8,4.799-7.175
		c0.776-1.134,2.476-1.36,3.294-0.461c1.505,1.653,3.011,3.307,4.455,5.013c39.466,46.628,78.924,93.264,118.387,139.895
		c2.892,3.417,5.779,6.841,8.762,10.178C356.409,926.363,357.415,926.604,358.341,927.092z M1532.472,978.07
		c0.953-1.273,1.762-2.26,2.47-3.313c21.587-32.111,43.165-64.228,64.737-96.348c0.891-1.326,1.771-2.665,2.55-4.058
		c1.284-2.298,1.847-4.755,1.312-7.392c-0.572-2.82-1.09-5.651-1.715-8.459c-12.361-55.555-31.764-108.507-58.645-158.698
		c-24.581-45.896-54.053-88.328-89.514-126.523c-20.488-22.069-42.707-42.31-65.527-61.909
		c-14.086-12.098-28.877-23.288-44.29-33.634c-58.904-39.538-122.466-68.812-191.201-86.701
		c-21.67-5.64-43.533-10.235-65.697-13.463c-11.075-1.613-22.172-2.934-33.311-4.035c-16.562-1.637-33.165-2.531-49.787-2.845
		c-23.041-0.435-46.021,0.835-68.968,2.994c-14.971,1.409-29.83,3.496-44.66,5.925c-24.004,3.931-47.666,9.382-70.945,16.348
		c-99.319,29.718-185.888,81.115-260.052,153.494c-106.032,106.331-167.053,234.114-182.728,383.5
		c-0.333,3.177-0.38,6.384-0.602,9.575c-0.304,4.379,1.055,8.167,3.913,11.467c3.768,4.352,7.534,8.707,11.256,13.097
		c9.928,11.71,19.824,23.446,29.754,35.154c1.237,1.458,2.591,2.817,3.913,4.2c0.592,0.62,2.016,0.6,2.608-0.052
		c1.718-1.888,3.464-3.755,5.099-5.714c21.934-26.268,43.859-52.544,65.77-78.833c27.439-32.921,54.86-65.859,82.302-98.778
		c1.635-1.961,3.343-3.869,5.106-5.716c1.465-1.533,3.667-1.752,5.208-0.526c1.998,1.589,3.948,3.247,5.844,4.957
		c15.438,13.924,30.852,27.875,46.292,41.796c2.118,1.91,4.343,3.701,6.352,5.406c2.724-0.672,4.021-2.607,5.558-4.188
		c8.695-8.943,17.312-17.964,26.03-26.885c48.732-49.87,97.503-99.702,146.225-149.583c21.679-22.194,43.265-44.479,64.917-66.699
		c2.226-2.284,4.592-4.432,6.939-6.594c0.902-0.831,2.739-0.823,3.538-0.001c1.553,1.599,3.128,3.19,4.534,4.916
		c20.006,24.542,40.012,49.083,59.966,73.667c59.461,73.254,118.89,146.533,178.351,219.787
		c16.326,20.114,32.714,40.178,49.1,60.244c1.404,1.72,2.958,3.329,4.554,4.874c0.323,0.312,1.398,0.372,1.702,0.089
		c1.393-1.292,2.745-2.66,3.911-4.157c10.023-12.867,20.003-25.769,29.997-38.659c44.678-57.628,89.353-115.257,134.041-172.876
		c1.947-2.51,4.013-4.928,6.101-7.483c1.05,0.581,2.089,0.832,2.595,1.492c1.942,2.536,3.726,5.195,5.548,7.823
		c37.912,54.654,75.82,109.309,113.73,163.964c10.206,14.715,20.398,29.439,30.635,44.133
		C1528.542,974.648,1529.411,976.844,1532.472,978.07z M590.125,835.412c-0.994,0.644-1.923,1.03-2.555,1.697
		c-1.536,1.624-2.95,3.364-4.384,5.083c-49.592,59.407-99.179,118.817-148.773,178.223c-2.049,2.453-4.132,4.88-6.241,7.281
		c-1.209,1.377-2.949,1.422-4.135,0.115c-1.718-1.894-3.407-3.815-5.061-5.766c-11.994-14.147-23.969-28.311-35.97-42.452
		c-1.858-2.19-3.78-4.33-5.774-6.396c-0.299-0.309-1.163-0.135-1.753-0.069c-0.241,0.027-0.615,0.339-0.643,0.558
		c-0.203,1.579-0.419,3.164-0.472,4.752c-1.295,39.121,1.57,77.963,7.952,116.557c1.095,6.616,2.549,13.174,3.864,19.754
		c0.224,1.117,1.652,2.199,2.808,2.195c1.275-0.004,2.56,0.025,3.824-0.111c7.943-0.866,15.882-1.768,23.82-2.67
		c8.256-0.938,16.503-1.957,24.767-2.822c8.901-0.932,17.818-1.702,26.724-2.589c7.315-0.728,14.622-1.532,21.934-2.284
		c9.538-0.982,19.073-1.994,28.618-2.907c9.545-0.913,19.103-1.702,28.652-2.579c7.32-0.672,14.636-1.395,21.955-2.096
		c10.499-1.007,20.994-2.062,31.5-3.008c10.188-0.918,20.387-1.711,30.579-2.586c7.643-0.655,15.283-1.35,22.924-2.034
		c11.461-1.025,22.917-2.105,34.383-3.073c10.831-0.913,21.671-1.699,32.505-2.564c8.285-0.662,16.566-1.361,24.85-2.045
		c12.424-1.025,24.843-2.108,37.273-3.062c12.113-0.928,24.238-1.686,36.353-2.586c12.751-0.947,25.49-2.091,38.248-2.938
		c14.993-0.997,30-1.769,45.002-2.64c1.276-0.074,2.552-0.183,3.829-0.251c18.198-0.975,36.385-2.46,54.595-2.813
		c46.678-0.907,93.362-1.721,140.054-1.205c45.725,0.506,91.453,0.787,137.152,2.657c21.725,0.89,43.454,1.656,65.181,2.484
		c1.278,0.049,2.554,0.161,3.83,0.233c17.556,1.001,35.112,1.988,52.668,3.001c14.363,0.829,28.725,1.685,43.087,2.536
		c0.957,0.057,1.909,0.191,2.865,0.264c13.707,1.03,27.416,2.047,41.122,3.085c10.839,0.82,21.677,1.641,32.511,2.51
		c7.328,0.588,14.654,1.213,21.974,1.907c10.183,0.966,20.354,2.046,30.535,3.013c9.547,0.906,19.109,1.647,28.649,2.612
		c8.585,0.867,17.146,1.964,25.722,2.913c5.718,0.633,11.443,1.188,17.167,1.769c2.131,0.217,3.604-0.945,4.025-3.153
		c0.12-0.628,0.196-1.265,0.299-1.896c1.742-10.729,3.299-21.478,4.453-32.292c1.494-13.993,2.905-27.987,3.231-42.064
		c0.577-24.944,0.61-49.865-1.557-74.771c-1.221-14.023-2.987-27.969-4.681-41.93c-0.229-1.89-0.823-3.738-1.291-5.595
		c-0.071-0.284-0.373-0.72-0.571-0.722c-0.558-0.005-1.364-0.018-1.633,0.322c-1.583,1.999-3.103,4.055-4.531,6.167
		c-13.075,19.334-26.13,38.681-39.184,58.028c-8.226,12.191-16.439,24.392-24.661,36.586c-0.894,1.325-1.777,2.658-2.716,3.951
		c-2.116,2.916-4.009,3.032-6.027,0.386c-0.774-1.016-1.518-2.058-2.245-3.107c-4.551-6.572-9.082-13.156-13.639-19.724
		c-44.283-63.839-88.57-127.676-132.856-191.513c-1.093-1.576-2.122-3.202-3.312-4.703c-0.545-0.688-1.405-1.125-2.306-1.817
		c-2.667,2.038-4.394,4.754-6.332,7.254c-42.509,54.842-85.004,109.694-127.493,164.552c-10.77,13.903-21.503,27.835-32.276,41.736
		c-1.957,2.524-3.988,4.994-6.064,7.421c-1.365,1.595-3.47,1.482-4.969-0.224c-1.687-1.921-3.323-3.887-4.934-5.873
		c-11.278-13.909-22.528-27.841-33.815-41.743c-49.383-60.82-98.778-121.63-148.163-182.448
		c-34.469-42.448-68.927-84.906-103.4-127.351c-1.812-2.23-3.708-4.393-5.596-6.56c-0.765-0.877-2.558-0.884-3.469-0.001
		c-2.066,2.002-4.126,4.013-6.129,6.078c-12.688,13.087-25.307,26.242-38.047,39.278C805,731.425,756.008,781.471,707.041,831.542
		c-16.993,17.376-33.937,34.801-50.952,52.155c-5.306,5.412-6.104,5.369-11.736,0.397c-1.678-1.481-3.312-3.011-4.973-4.512
		c-14.47-13.083-28.935-26.17-43.419-39.235C594.077,838.647,592.087,837.066,590.125,835.412z M770.156,1570.692
		c3.548,1.428,6.764,2.81,10.041,4.028c54.25,20.178,110.284,32.364,167.949,36.839c17.515,1.359,35.102,2.316,52.702,1.859
		c9.586-0.249,19.163-0.843,28.748-1.15c16.637-0.535,33.155-2.448,49.62-4.647c19.634-2.624,39.1-6.295,58.38-10.906
		c23.633-5.652,46.904-12.496,69.692-20.948c1.179-0.437,2.343-0.985,3.384-1.678c0.349-0.231,0.588-1.385,0.375-1.586
		c-1.841-1.741-3.724-3.456-5.73-5.003c-13.946-10.748-27.273-22.201-39.595-34.794c-15.268-15.604-28.768-32.559-39.575-51.601
		c-16.664-29.362-24.547-60.811-23.23-94.617c0.676-17.337,3.355-34.342,7.4-51.147c3.587-14.906,7.508-29.733,11.325-44.585
		c5.096-19.821,9.557-39.734,11.447-60.193c1.365-14.77,0.798-29.413-1.526-43.968c-2.996-18.758-9.208-36.504-18.04-53.341
		c-10.345-19.721-23.73-37.136-39.707-52.58c-8.938-8.641-6.512-7.47-18.473-7.322c-32.928,0.407-65.856,0.848-98.778,1.589
		c-15.335,0.346-30.657,1.377-45.98,2.175c-8.618,0.449-17.229,1.058-25.842,1.597c-1.595,0.1-3.192,0.183-4.783,0.331
		c-0.629,0.06-1.243,0.28-1.865,0.419c-0.619,0.137-1.389,1.872-1.014,2.395c1.48,2.062,2.888,4.184,4.472,6.163
		c14.018,17.523,26.602,35.967,36.41,56.22c7.426,15.334,12.976,31.27,15.644,48.137c1.962,12.4,2.131,24.881,0.382,37.277
		c-2.498,17.714-9.197,33.831-19.703,48.352c-5.639,7.794-11.936,15.021-18.745,21.79c-6.348,6.311-12.886,12.429-19.318,18.654
		c-7.811,7.56-15.723,15.019-23.375,22.737c-34.51,34.812-58.118,75.924-70.838,123.271c-9.017,33.564-12.813,67.767-12.433,102.471
		C769.586,1567.865,769.855,1568.798,770.156,1570.692z M838.508,1797.489c-0.799,0.221-1.715,0.728-2.597,0.673
		c-3.822-0.236-7.636-0.623-11.45-0.98c-2.871-0.271-4.399,0.773-4.674,3.412c-1.06,10.169-2.082,20.342-3.098,30.516
		c-0.062,0.626-0.095,1.329,0.126,1.892c0.213,0.543,0.709,1.27,1.192,1.366c3.437,0.69,6.881,1.421,10.36,1.806
		c17.778,1.965,35.565,3.842,53.354,5.716c2.54,0.268,5.097,0.419,7.649,0.476c0.903,0.021,1.816-0.4,2.953-0.675
		c0.462-2.181,1.088-4.32,1.347-6.503c0.825-6.979,1.524-13.974,2.243-20.966c0.13-1.269,0.144-2.551,0.174-3.827
		c0.042-1.707-0.859-2.907-2.68-3.468c-1.522-0.469-3.076-0.831-4.613-1.253c-2.771-0.759-5.576-1.422-8.285-2.359
		c-0.729-0.253-1.375-1.274-1.678-2.085c-0.319-0.853-0.312-1.889-0.221-2.823c0.769-7.949,1.577-15.895,2.408-23.838
		c0.099-0.945,0.312-1.901,0.63-2.796c4.539-12.79,12.871-21.96,25.843-26.431c6.138-2.115,12.484-2.499,18.887-0.925
		c9.29,2.284,15.343,9.761,15.532,19.388c0.031,1.592-0.08,3.195-0.246,4.781c-1.2,11.438-2.428,22.873-3.656,34.309
		c-0.102,0.952-0.245,1.901-0.41,2.845c-0.39,2.229-1.669,3.502-3.757,3.61c-2.872,0.149-5.749,0.193-8.621,0.325
		c-1.59,0.073-3.179,0.21-4.763,0.365c-1.139,0.111-2.406,1.316-2.529,2.515c-1.012,9.846-2.013,19.692-2.959,29.545
		c-0.161,1.67,1.123,3.229,2.658,3.445c1.896,0.267,3.802,0.455,5.707,0.656c8.576,0.909,17.154,1.8,25.729,2.719
		c9.209,0.987,18.415,2.011,27.625,2.996c3.809,0.408,7.624,0.768,11.438,1.127c1.005,0.095,2.594-1.143,2.836-2.172
		c0.219-0.932,0.489-1.862,0.589-2.81c0.844-7.942,1.756-15.879,2.45-23.835c0.859-9.859,0.986-8.281-8.109-9.854
		c-2.201-0.38-4.424-0.626-6.632-0.962c-1.207-0.184-2.208-1.449-2.19-2.711c0.013-0.955-0.025-1.919,0.077-2.865
		c1.477-13.658,2.847-27.329,4.516-40.963c0.945-7.721,0.714-15.331-1.124-22.845c-3.84-15.696-13.132-26.72-28.42-32.414
		c-5.423-2.02-11.038-3.199-16.825-3.463c-15.508-0.709-29.744,3.073-42.492,12.092c-1.294,0.916-2.636,1.785-4.042,2.506
		c-0.314,0.161-1.391-0.331-1.438-0.63c-0.195-1.238-0.244-2.528-0.138-3.781c0.27-3.177,0.684-6.342,0.973-9.517
		c0.114-1.256-0.947-2.451-2.216-2.677c-0.941-0.167-1.884-0.346-2.833-0.452c-6.983-0.782-13.969-1.538-20.953-2.321
		c-8.252-0.927-16.5-1.885-24.754-2.797c-1.266-0.14-2.55-0.119-3.826-0.148c-1.371-0.031-2.668,0.815-2.866,1.966
		c-1.896,11.022-2.963,22.137-3.61,33.295c-0.073,1.259,1.042,2.514,2.232,2.694c4.414,0.667,8.834,1.295,13.243,1.997
		c1.258,0.201,2.159,1.459,2.119,2.755c-0.05,1.595-0.073,3.195-0.229,4.781c-0.878,8.903-1.784,17.803-2.699,26.701
		c-0.457,4.448-0.959,8.893-1.43,13.34C839.997,1791.125,839.901,1794.34,838.508,1797.489z M743.2,1674.333
		c-1.378-1.342-3.032-2.219-4.767-3.058c-12.927-6.256-25.828-12.564-38.738-18.854c-0.861-0.42-1.72-0.844-2.594-1.234
		c-2.133-0.953-3.213-0.657-4.999,1.317c-1.493,1.651-2.947,3.344-4.537,4.897c-0.275,0.269-1.451,0.158-1.685-0.162
		c-1.503-2.051-2.863-4.207-4.264-6.332c-6.276-9.516-14.298-17.181-24.468-22.378c-17.971-9.184-36.112-9.708-54.196-0.324
		c-8.044,4.174-14.708,10.109-20.408,17.13c-6.08,7.489-10.857,15.75-14.595,24.634c-4.531,10.771-6.595,21.965-5.959,33.65
		c0.948,17.41,7.675,32.233,20.53,43.95c13.222,12.052,28.772,17.387,46.755,14.452c1.89-0.309,3.792-0.542,5.691-0.788
		c0.968-0.125,2.021,0.789,1.866,1.654c-0.389,2.182-0.841,4.354-1.247,6.533c-0.209,1.121,0.53,2.691,1.537,3.249
		c1.117,0.619,2.241,1.229,3.39,1.786c12.917,6.275,25.838,12.544,38.765,18.801c1.145,0.555,2.332,1.024,3.509,1.508
		c1.021,0.418,2.717-0.212,3.274-1.224c0.462-0.837,0.883-1.697,1.305-2.557c2.81-5.732,5.705-11.425,8.403-17.21
		c6.51-13.958,7.891-10.962-5.639-17.771c-1.688-0.85-3.54-1.479-4.681-3.568c0.377-0.993,0.732-2.211,1.282-3.334
		c7.57-15.477,15.166-30.94,22.768-46.401c0.134-0.272,0.404-0.494,0.65-0.69c0.247-0.198,0.542-0.335,1.036-0.631
		c1.027,0.341,2.264,0.625,3.392,1.146c3.475,1.605,6.901,3.317,10.361,4.956c1.166,0.553,2.729,0.045,3.361-0.995
		c0.164-0.271,0.385-0.51,0.522-0.792c4.611-9.468,9.233-18.932,13.793-28.425C743.006,1676.454,742.991,1675.444,743.2,1674.333z
		 M372.708,1586.245c3.676,4.045,7.139,7.348,10.53,10.714c4.537,4.502,9.106,8.971,13.679,13.437
		c0.984,0.961,2.245,1.21,3.542,0.936c1.246-0.264,2.455-0.706,3.682-1.062c21.165-6.118,42.331-12.232,63.495-18.354
		c11.656-3.372,23.304-6.768,34.965-10.122c1.633-0.47,3.155-0.117,4.409,1.103c2.979,2.896,5.939,5.811,8.936,8.688
		c1.425,1.369,3.073,1.545,4.235,0.375c7.88-7.933,15.737-15.889,23.558-23.88c0.34-0.348,0.247-1.117,0.397-1.912
		c-0.74-0.855-1.511-1.872-2.407-2.766c-15.617-15.572-31.247-31.134-46.889-46.682c-0.9-0.895-1.871-1.752-2.93-2.442
		c-0.8-0.522-1.893-0.675-2.642,0.074c-7.454,7.447-14.894,14.91-22.236,22.466c-0.441,0.454-0.359,1.957,0.055,2.604
		c1.55,2.415,3.364,4.66,5.032,7.002c1.108,1.554,2.148,3.157,3.194,4.754c0.462,0.705-0.03,2.126-0.818,2.431
		c-0.887,0.343-1.768,0.713-2.678,0.984c-18.357,5.48-36.717,10.952-55.082,16.407c-0.598,0.178-1.253,0.152-1.878,0.245
		c-0.795,0.118-1.857-1.031-1.657-1.846c0.611-2.474,1.167-4.965,1.879-7.41c4.02-13.799,8.053-27.593,12.141-41.37
		c1.16-3.91,1.541-8.128,4.135-11.503c0.699-0.909,1.411-0.463,10.385,6.089c0.774,0.565,1.521,1.192,2.363,1.632
		c0.793,0.413,1.696,0.615,2.423,0.866c6.341-5.176,19.267-18.207,23.706-23.861c-0.058-0.313-0.037-0.676-0.19-0.934
		c-0.481-0.809-0.93-1.67-1.565-2.348c-10.289-10.986-46.26-46.266-51.552-50.557c-1.173,0.895-2.539,1.718-3.637,2.809
		c-6.578,6.531-13.095,13.124-19.628,19.698c-0.451,0.453-0.879,0.929-1.309,1.402c-1.536,1.691-1.48,3.146,0.277,4.985
		c1.766,1.849,3.61,3.622,5.373,5.474c1.529,1.605,2.993,3.272,4.789,5.246C392.997,1514.958,382.65,1550.158,372.708,1586.245z
		 M1596.883,1595.938c2.133-0.142,3.191-1.378,4.338-2.419c7.1-6.449,14.182-12.918,21.261-19.39
		c0.706-0.646,1.361-1.348,2.024-2.04c0.916-0.956,1.008-2.431,0.098-3.447c-3.411-3.808-6.841-7.599-10.305-11.357
		c-1.211-1.313-3.041-1.477-4.269-0.421c-2.18,1.877-4.296,3.828-6.469,5.714c-1.202,1.045-2.411,2.097-3.717,3.003
		c-0.812,0.563-1.908,0.623-2.648-0.101c-2.278-2.23-4.524-4.501-6.674-6.854c-29.753-32.582-59.479-65.188-89.24-97.762
		c-2.345-2.566-4.408-5.45-7.468-7.374c-0.918,0.501-1.881,0.812-2.563,1.431c-8.294,7.512-16.55,15.064-24.801,22.623
		c-0.462,0.424-0.933,0.943-1.142,1.513c-0.196,0.538-0.315,1.432-0.017,1.772c3.361,3.839,6.761,7.648,10.294,11.328
		c0.483,0.504,1.977,0.655,2.611,0.29c2.765-1.592,5.369-3.458,8.062-5.179c1.853-1.183,3.753-2.289,5.455-3.322
		c0.633,0.312,0.994,0.384,1.196,0.604c8.42,9.171,16.828,18.353,25.219,27.551c0.166,0.183,0.138,0.569,0.15,0.862
		c0.036,0.818-0.365,1.221-1.169,1.216c-2.55-0.014-5.101-0.043-7.65-0.032c-3.521,0.015-6.999,0.263-10.465,1.051
		c-21.219,4.827-36.778,17.165-47.499,35.828c-3.365,5.858-5.531,12.258-6.38,18.979c-1.513,11.985-0.079,23.588,5.065,34.633
		c7.049,15.134,17.389,27.507,31.227,36.836c3.688,2.485,7.692,4.607,11.773,6.386c12.097,5.271,24.814,6.375,37.583,3.604
		c18.669-4.052,33.155-14.609,43.705-30.462c5.79-8.701,8.971-18.32,8.965-28.881c-0.002-1.911,0.099-3.822,0.197-5.731
		c0.013-0.243,0.276-0.652,0.461-0.675c0.594-0.07,1.417-0.242,1.772,0.063c2.173,1.871,4.241,3.862,6.343,5.815
		C1593.835,1593.101,1595.459,1594.614,1596.883,1595.938z M1276.418,1737.629c1.168-0.644,2.498-1.494,3.922-2.138
		c3.49-1.578,7.026-3.057,10.541-4.581c26.36-11.437,52.722-22.871,79.077-34.317c2.928-1.271,5.832-2.595,8.729-3.934
		c1.234-0.57,2.11-1.962,1.911-3.019c-1.002-5.328-1.72-10.764-4.421-15.582c-12.885-22.979-32.481-34.633-58.874-34.025
		c-17.823,0.41-33.616,6.936-47.702,17.697c-5.107,3.902-9.525,8.509-13.266,13.748c-5.864,8.215-9.634,17.311-10.801,27.332
		c-1.079,9.266-0.645,18.497,1.809,27.572c4.075,15.077,10.845,28.666,22.191,39.631c13.648,13.188,30.071,18.888,48.945,17.486
		c17.751-1.317,33.382-8.052,47.285-18.971c6.082-4.776,11.201-10.469,15.234-17.084c4.906-8.05,7.804-16.753,8.222-26.22
		c0.107-2.435-0.893-3.745-3.117-3.888c-3.506-0.225-7.017-0.394-10.527-0.492c-3.528-0.1-4.802,0.885-5.259,4.067
		c-1.17,8.145-4.665,15.234-10.045,21.376c-8.676,9.904-19.512,16.331-32.248,19.575c-4.351,1.108-8.761,1.86-13.272,1.536
		c-16.836-1.212-29.603-9.092-38.3-23.541C1276.176,1739.401,1276.418,1738.629,1276.418,1737.629z M1081.911,1732.183
		c4.449-0.658,9.163-1.362,13.879-2.047c1.033-0.149,2.754,0.969,3.004,1.9c0.165,0.616,0.362,1.228,0.47,1.854
		c2.743,16.044,5.444,32.096,8.225,48.134c1.418,8.186,3.161,16.306,6.271,24.046c2.151,5.354,4.858,10.411,8.636,14.837
		c5.146,6.029,11.516,10.168,19.301,11.666c9.898,1.905,19.71,1.055,29.331-1.943c0.915-0.285,1.978-1.976,1.8-3.078
		c-0.867-5.352-1.726-10.706-2.778-16.022c-0.127-0.641-1.416-1.505-2.152-1.49c-2.533,0.048-5.073,0.35-7.587,0.722
		c-4.182,0.621-8.256,0.222-12.339-0.782c-4.219-1.037-7.675-3.253-10.184-6.7c-1.672-2.298-3.184-4.83-4.172-7.479
		c-1.442-3.866-2.679-7.871-3.428-11.924c-3.189-17.261-6.175-34.56-9.204-51.85c-0.219-1.249-0.222-2.537-0.289-3.81
		c-0.062-1.203,0.939-2.493,2.171-2.74c3.441-0.691,6.882-1.388,10.337-2.009c14.8-2.659,13.753-0.461,11.047-15.962
		c-1.248-7.148-1.513-7.839-9.291-6.195c-5.296,1.12-10.688,1.794-16.044,2.623c-1.168,0.181-2.602-0.887-2.924-2.004
		c-0.177-0.613-0.417-1.215-0.525-1.84c-0.816-4.718-1.575-9.445-2.414-14.158c-1.287-7.227-2.612-14.445-3.95-21.662
		c-0.242-1.308-1.481-2.258-2.687-2.215c-0.636,0.023-1.284-0.047-1.905,0.057c-4.406,0.736-8.81,1.485-13.205,2.274
		c-2.205,0.396-3.427,1.924-3.249,3.956c0.112,1.271,0.191,2.551,0.405,3.807c1.346,7.865,2.688,15.73,4.101,23.584
		c2.366,13.163,3.717,12.614-10.472,14.699c-4.917,0.722-5.756,1.77-4.555,7.2c0.757,3.424,1.16,6.925,1.816,10.372
		C1079.647,1729.559,1080.073,1731.129,1081.911,1732.183z M660.976,1173.72c82.798,0,165.596,0,248.394-0.003
		c3.197,0,6.395,0.007,9.589-0.087c0.932-0.027,1.921-0.253,2.755-0.654c0.466-0.225,0.934-0.994,0.943-1.526
		c0.043-2.373-1.818-4.428-4.012-4.491c-2.875-0.083-5.753-0.1-8.629-0.101c-26.854-0.007-53.707-0.004-80.56-0.004
		c-138.743,0-277.486-0.001-416.229,0.004c-3.515,0.001-7.031,0.044-10.546,0.121c-0.615,0.014-1.332,0.152-1.805,0.5
		c-0.427,0.315-0.849,1.013-0.817,1.513c0.178,2.761,1.671,4.516,3.894,4.587c3.194,0.104,6.391,0.136,9.587,0.136
		C496.019,1173.721,578.498,1173.72,660.976,1173.72z M398.651,1160.266c2.493,0.062,5.356,0.193,8.22,0.196
		c23.34,0.021,46.679,0.022,70.019,0.023c130.767,0.009,261.534,0.017,392.3,0.021c13.748,0.001,27.496-0.005,41.243-0.062
		c1.896-0.008,3.792-0.313,5.684-0.52c0.692-0.075,1.474-1.388,1.386-2.21c-0.227-2.124-1.67-3.794-3.535-3.882
		c-2.87-0.136-5.745-0.217-8.618-0.219c-22.7-0.017-45.4-0.009-68.101-0.009c-142.596-0.001-285.192-0.001-427.789,0.004
		c-3.516,0-7.033,0.043-10.547,0.125c-0.61,0.015-1.321,0.187-1.788,0.544c-0.437,0.334-0.868,1.018-0.854,1.537
		C396.313,1157.463,397.009,1158.885,398.651,1160.266z M911.097,1146.975c0.995-1.966,0.522-3.452-0.512-4.738
		c-0.804-1.001-1.879-1.721-3.267-1.738c-2.556-0.034-5.112-0.096-7.668-0.098c-20.457-0.008-40.914-0.004-61.37-0.004
		c-143.518,0-287.036-0.001-430.554,0.002c-3.516,0-7.033-0.009-10.547,0.069c-0.934,0.021-1.909,0.233-2.771,0.589
		c-0.5,0.207-0.984,0.811-1.174,1.343c-0.643,1.806,0.674,4.481,2.271,4.563c3.506,0.179,7.019,0.314,10.529,0.314
		c149.911,0.015,299.821,0.013,449.732,0.013c15.982,0,31.963,0.014,47.945-0.015
		C906.24,1147.271,908.767,1147.075,911.097,1146.975z M904.299,1133.486c0.089-2.299-0.115-3.814-0.963-4.375
		c-1.028-0.681-2.196-1.433-3.367-1.557c-2.532-0.269-5.104-0.19-7.659-0.193c-12.465-0.013-24.929-0.006-37.394-0.006
		c-149.9,0-299.8-0.001-449.701,0.002c-3.835,0-7.671,0.003-11.505,0.079c-0.938,0.02-1.922,0.21-2.783,0.567
		c-0.487,0.202-0.952,0.85-1.108,1.389c-0.558,1.916,0.806,4.268,2.552,4.35c3.506,0.164,7.019,0.284,10.528,0.285
		c127.847,0.013,255.693,0.011,383.54,0.011c36.117,0,72.233,0.012,108.349-0.02
		C897.961,1134.015,901.179,1134.458,904.299,1133.486z M675.709,1232.831c-34.54,0-69.08,0-103.619,0
		c-45.414,0-90.827-0.005-136.24,0.012c-3.192,0.001-6.387,0.117-9.576,0.258c-1.637,0.072-2.638,2.004-1.923,3.543
		c0.714,1.539,1.824,2.651,3.582,2.755c2.231,0.132,4.472,0.158,6.708,0.159c67.16,0.011,134.321,0.013,201.481,0.016
		c77.395,0.003,154.79,0.005,232.185,0.006c16.31,0,32.62-0.002,48.93-0.024c2.235-0.004,4.472-0.088,6.704-0.216
		c1.894-0.109,3.227-1.994,3.022-4.115c-0.092-0.954-1.587-2.186-2.766-2.207c-3.516-0.064-7.031-0.177-10.547-0.178
		C834.336,1232.829,755.022,1232.831,675.709,1232.831z M676.246,1245.902c0-0.014,0-0.026,0-0.04
		c-67.103,0-134.207-0.002-201.31,0.002c-12.782,0.001-25.563,0.004-38.345,0.068c-1.892,0.009-3.797,0.279-5.663,0.618
		c-0.408,0.073-0.904,0.928-0.958,1.464c-0.186,1.827,1.455,4.18,2.996,4.338c1.899,0.194,3.813,0.337,5.722,0.343
		c12.461,0.038,24.923,0.04,37.385,0.04c131.011,0.003,262.022,0.003,393.034,0.002c15.337,0,30.675-0.002,46.013-0.047
		c1.902-0.006,3.809-0.232,5.701-0.461c1.172-0.141,2.299-2.054,2.39-3.812c0.049-0.941-1.376-2.326-2.523-2.352
		c-3.513-0.077-7.026-0.157-10.54-0.157C832.181,1245.9,754.213,1245.902,676.246,1245.902z M1359.71,1127.355
		c-76.073,0-152.147-0.001-228.222,0.002c-3.196,0-6.394-0.02-9.588,0.072c-0.927,0.027-1.912,0.276-2.738,0.688
		c-0.436,0.218-0.878,1.046-0.815,1.533c0.325,2.515,2.092,4.211,4.365,4.291c2.235,0.078,4.474,0.09,6.71,0.093
		c19.178,0.021,38.356,0.049,57.535,0.048c128.494-0.011,256.989-0.028,385.484-0.045c7.352-0.001,14.703,0.013,22.055-0.031
		c1.262-0.008,2.527-0.236,3.779-0.434c1.129-0.177,2.342-2.378,2.021-3.938c-0.185-0.896-0.745-1.833-1.851-1.893
		c-3.183-0.173-6.369-0.372-9.554-0.373C1512.499,1127.349,1436.105,1127.354,1359.71,1127.355z M676.658,1265.815
		c13.75,0,27.5,0,41.251,0c62.035,0.001,124.07,0.004,186.106-0.005c3.195-0.001,6.394-0.04,9.585-0.192
		c2.097-0.101,3.81-2.152,3.948-4.653c0.026-0.475-0.502-1.358-0.87-1.413c-1.879-0.28-3.789-0.469-5.689-0.477
		c-13.75-0.051-27.5-0.064-41.25-0.062c-128.868,0.011-257.736,0.027-386.604,0.042c-13.11,0.002-26.221-0.017-39.331,0.019
		c-2.226,0.006-4.452,0.222-6.677,0.367c-0.727,0.047-1.338,1.341-1.104,2.249c0.567,2.192,1.984,3.784,3.7,3.866
		c3.189,0.154,6.385,0.251,9.578,0.252C525.086,1265.82,600.872,1265.817,676.658,1265.815z M1361.292,1147.291
		c0,0.01,0,0.02,0,0.029c73.204,0,146.409,0.001,219.613-0.004c3.836,0,7.673-0.012,11.507-0.102
		c0.925-0.022,1.85-0.353,2.762-0.591c1.539-0.403,2.476-3.879,1.252-4.887c-0.681-0.562-1.612-1.119-2.446-1.145
		c-5.109-0.154-10.225-0.2-15.338-0.201c-130.105-0.011-260.211-0.013-390.316-0.013c-18.541-0.001-37.082-0.003-55.622,0.04
		c-2.22,0.005-4.439,0.277-6.655,0.459c-0.722,0.06-1.435,1.353-1.287,2.223c0.381,2.244,1.76,3.901,3.506,3.973
		c3.189,0.13,6.385,0.209,9.576,0.209C1212.326,1147.293,1286.808,1147.291,1361.292,1147.291z M1130.284,1154.352
		c-0.102,0.327-0.289,0.637-0.276,0.938c0.157,3.664,1.218,5,4.186,5.088c3.194,0.093,6.392,0.091,9.588,0.092
		c115.713,0.004,231.427,0.001,347.141,0.005c30.047,0,60.095,0.026,90.142,0.018c3.191-0.001,6.386-0.114,9.574-0.257
		c1.458-0.064,2.147-1.188,2.697-2.374c1.04-2.249,0.217-4.054-1.944-4.116c-3.513-0.102-7.029-0.164-10.544-0.164
		c-131.376-0.01-262.753-0.013-394.129-0.012c-16.303,0-32.604,0.003-48.906,0.06
		C1135.29,1153.637,1132.689,1153.148,1130.284,1154.352z M1362.29,1166.832c0-0.007,0-0.015,0-0.021
		c-58.472,0-116.943-0.003-175.416,0.002c-15.337,0.002-30.674,0.013-46.011,0.068c-1.894,0.007-3.799,0.247-5.671,0.552
		c-0.414,0.068-0.945,0.83-1.022,1.334c-0.428,2.793,0.813,4.601,3.3,4.714c3.507,0.16,7.02,0.23,10.531,0.23
		c143.464,0.016,286.929,0.02,430.395,0.018c2.555,0,5.111-0.036,7.664-0.131c2.037-0.075,3.064-1.079,3.874-3.573
		c0.46-1.419-0.214-2.833-1.446-2.89c-2.866-0.132-5.735-0.29-8.603-0.291C1507.353,1166.828,1434.822,1166.832,1362.29,1166.832z
		 M1353.951,1232.831c0-0.01,0-0.02,0-0.029c-55.942,0-111.884-0.002-167.826,0.002c-13.106,0.001-26.213-0.005-39.319,0.054
		c-2.215,0.011-4.434,0.297-6.642,0.533c-1.034,0.11-1.838,1.454-1.923,2.962c-0.088,1.568,0.641,2.837,1.781,2.884
		c3.505,0.145,7.012,0.314,10.519,0.314c134.261,0.016,268.522,0.014,402.783,0.013c2.558,0,5.116,0.02,7.672-0.039
		c0.944-0.022,1.936-0.099,2.816-0.406c1.704-0.595,2.225-2.138,2.553-3.733c0.209-1.019-1.089-2.345-2.397-2.381
		c-3.193-0.088-6.389-0.165-9.583-0.166C1487.573,1232.829,1420.762,1232.831,1353.951,1232.831z M1349.2,1245.902
		c-67.434,0-134.867,0-202.301,0.002c-1.918,0-3.836,0.014-5.752,0.053c-0.636,0.013-1.27,0.123-1.902,0.197
		c-1.76,0.205-3.109,2.296-2.796,4.323c0.179,1.158,1.284,2.042,2.783,2.081c3.193,0.083,6.388,0.148,9.582,0.148
		c132.63,0.007,265.261,0.007,397.892,0.006c2.558,0,5.114,0.004,7.671-0.022c0.956-0.01,1.916-0.065,2.868-0.163
		c1.577-0.16,3.054-2.013,3.388-4.186c0.228-1.479-0.948-2.352-3.378-2.396c-2.875-0.052-5.752-0.042-8.629-0.042
		C1482.151,1245.902,1415.675,1245.902,1349.2,1245.902z M1554.14,1259.537c-3.656-0.86-7.501-0.462-11.304-0.463
		c-114.424-0.023-228.848-0.019-343.271-0.019c-17.898,0-35.797-0.002-53.695,0.003c-2.557,0-5.114-0.006-7.67,0.07
		c-2.758,0.083-4.181,1.596-4.036,4.158c0.076,1.353,1.491,2.366,3.56,2.421c2.875,0.076,5.751,0.104,8.627,0.105
		c28.446,0.007,56.892,0.004,85.338,0.004c102.918,0,205.835,0.001,308.752-0.004c3.195,0,6.4,0.073,9.581-0.159
		c1.163-0.085,2.477-0.729,3.351-1.526C1554.604,1263.002,1554.865,1261.385,1554.14,1259.537z M1316.506,1331.592
		c62.327,0,124.654,0.001,186.981-0.006c3.194,0,6.39-0.061,9.585-0.121c2.223-0.042,3.344-1.561,4.29-3.293
		c0.638-1.167-0.076-2.84-1.308-2.895c-3.502-0.155-7.008-0.355-10.512-0.356c-106.436-0.03-212.87-0.04-319.306-0.048
		c-19.816-0.002-39.634,0.009-59.45,0.047c-2.229,0.004-4.464,0.154-6.685,0.362c-1.479,0.138-2.659,2.707-2.316,4.693
		c0.219,1.267,1.303,1.395,2.157,1.435c3.189,0.149,6.387,0.178,9.582,0.178C1191.852,1331.596,1254.179,1331.594,1316.506,1331.592
		z M1508.697,1338.375c-3.404-0.868-6.938-0.446-10.436-0.447c-123.769-0.026-247.538-0.023-371.307-0.021
		c-2.559,0-5.118-0.021-7.674,0.077c-0.927,0.035-1.847,0.373-2.762,0.603c-0.954,0.24-1.637,1.557-1.689,3.19
		c-0.045,1.403,0.866,2.707,2.061,2.757c3.189,0.132,6.382,0.271,9.573,0.272c40.616,0.018,81.232,0.012,121.85,0.012
		c81.873,0,163.746,0.002,245.619-0.007c3.516-0.001,7.044,0.048,10.542-0.231c1.117-0.089,2.34-0.981,3.187-1.833
		C1508.78,1341.621,1509.566,1340.172,1508.697,1338.375z M664.735,1180.208c-32.289,0-64.577,0-96.865,0
		c-50.83,0-101.66-0.004-152.49,0.011c-3.193,0.001-6.388,0.105-9.575,0.284c-0.472,0.026-1.117,0.649-1.317,1.145
		c-0.653,1.613,0.805,4.494,2.331,4.61c2.858,0.218,5.726,0.415,8.589,0.422c20.141,0.048,40.281,0.054,60.421,0.055
		c131.391,0.011,262.783,0.018,394.174,0.02c15.665,0.001,31.329-0.019,46.993-0.074c2.548-0.009,5.098-0.226,7.643-0.396
		c1.083-0.073,1.854-1.797,1.427-3.036c-0.625-1.81-1.744-2.871-3.344-2.911c-3.195-0.081-6.392-0.123-9.588-0.123
		C830.333,1180.208,747.534,1180.208,664.735,1180.208z M669.731,1199.798c62.684,0,125.367,0,188.05,0
		c20.148,0,40.296,0.012,60.444-0.016c2.872-0.004,5.747-0.151,8.611-0.357c0.535-0.039,1.129-0.59,1.517-1.054
		c0.734-0.878-0.219-4-1.297-4.187c-1.861-0.322-3.75-0.678-5.629-0.685c-17.589-0.059-35.179-0.054-52.768-0.054
		c-130.484,0.001-260.968,0.004-391.452,0.008c-19.828,0-39.656-0.008-59.484,0.033c-2.537,0.005-5.075,0.261-7.609,0.438
		c-0.827,0.058-1.414,1.124-1.279,2.178c0.229,1.795,1.394,3.279,2.838,3.349c3.505,0.167,7.015,0.331,10.523,0.331
		C504.708,1199.801,587.219,1199.798,669.731,1199.798z M1114.446,1351.156c-0.805,0.774-1.389,1.138-1.693,1.664
		c-1.356,2.342-0.957,4.662,2.104,4.867c3.186,0.214,6.389,0.194,9.585,0.194c41.255,0.012,82.51,0.008,123.766,0.008
		c78.992,0,157.984,0.001,236.977-0.006c3.196-0.001,6.399,0.021,9.587-0.17c2.478-0.149,3.984-1.761,4.9-3.988
		c0.36-0.876-0.135-2.198-0.932-2.23c-3.187-0.129-6.374-0.324-9.562-0.324c-121.526-0.017-243.053-0.015-364.579-0.015
		C1121.086,1351.156,1117.574,1351.156,1114.446,1351.156z M670.665,1206.723c0-0.019,0-0.038,0-0.058
		c-65.238,0-130.475-0.004-195.713,0.003c-17.589,0.002-35.177,0.018-52.766,0.075c-2.539,0.009-5.078,0.272-7.615,0.448
		c-0.775,0.054-1.381,1.337-1.096,2.211c0.789,2.416,1.869,3.427,3.924,3.507c2.235,0.088,4.474,0.125,6.711,0.126
		c71.313,0.007,142.627,0.005,213.94,0.007c76.75,0.003,153.501,0.009,230.251,0.011c17.588,0.001,35.177,0.008,52.765-0.036
		c2.213-0.005,4.443-0.188,6.629-0.524c0.929-0.144,1.432-1.104,1.529-2.14c0.173-1.846-0.804-3.336-2.42-3.394
		c-3.512-0.126-7.028-0.227-10.542-0.227C834.398,1206.721,752.531,1206.723,670.665,1206.723z M665.593,1324.902
		c-60.763,0-121.525-0.001-182.289,0.003c-2.558,0-5.116,0.013-7.673,0.078c-0.622,0.016-1.317,0.13-1.832,0.442
		c-0.494,0.3-1.149,0.933-1.125,1.387c0.108,2.052,2.396,4.523,4.198,4.592c3.193,0.121,6.391,0.184,9.586,0.184
		c118.967,0.008,237.934,0.007,356.901,0.006c2.559,0,5.119-0.083,7.675-0.004c3.207,0.099,5.496-1.331,7.146-3.969
		c0.169-0.27,0.479-0.684,0.391-0.838c-0.302-0.522-0.723-1.331-1.154-1.367c-3.171-0.262-6.356-0.492-9.536-0.493
		C787.119,1324.896,726.356,1324.903,665.593,1324.902z M674.32,1219.845c0-0.015,0-0.028,0-0.043
		c-66.203,0-132.407-0.003-198.61,0.002c-15.991,0.001-31.982,0.009-47.973,0.062c-2.542,0.008-5.086,0.254-7.626,0.428
		c-0.79,0.055-1.517,1.278-1.364,2.163c0.382,2.21,1.733,3.642,3.699,3.697c3.515,0.101,7.034,0.14,10.55,0.14
		c90.19,0.007,180.379,0.006,270.569,0.006c70.68,0,141.361,0,212.042-0.004c3.198,0,6.396-0.009,9.594-0.083
		c2.326-0.054,3.656-1.369,3.634-3.44c-0.018-1.674-1.119-2.719-3.141-2.774c-3.515-0.098-7.032-0.146-10.549-0.146
		C834.87,1219.843,754.595,1219.845,674.32,1219.845z M1353.766,1107.516c72.889,0,145.779,0,218.669,0
		c8.632,0,17.263,0.026,25.895-0.024c1.896-0.012,3.794-0.289,5.688-0.471c0.619-0.06,1.739-1.658,1.494-2.18
		c-0.26-0.554-0.57-1.308-1.048-1.494c-1.468-0.575-3.008-1.212-4.552-1.307c-6.377-0.391-12.766-0.823-19.149-0.824
		c-155.369-0.037-310.739-0.02-466.108-0.012c-3.196,0.001-6.395-0.022-9.59,0.048c-0.928,0.02-1.861,0.281-2.771,0.515
		c-0.692,0.177-0.905,0.748-0.649,1.513c0.762,2.28,2.13,3.976,4.686,4.107c2.87,0.149,5.751,0.124,8.628,0.124
		C1194.56,1107.516,1274.163,1107.515,1353.766,1107.516z M1356.408,1114.352c0-0.017,0-0.033,0-0.05
		c-56.593,0-113.186-0.005-169.778,0.002c-22.381,0.003-44.763,0.018-67.145,0.068c-2.533,0.006-5.072,0.229-7.594,0.495
		c-0.379,0.04-0.969,0.87-0.958,1.323c0.043,1.939,1.705,4.22,3.164,4.298c3.188,0.172,6.384,0.273,9.577,0.273
		c97.199,0.014,194.398,0.012,291.598,0.012c58.512,0,117.022,0.003,175.534-0.009c3.193-0.001,6.394-0.031,9.574-0.268
		c0.771-0.058,1.72-0.839,2.166-1.551c1.466-2.338,0.288-4.406-2.502-4.497c-2.875-0.093-5.754-0.094-8.631-0.094
		C1513.078,1114.351,1434.743,1114.352,1356.408,1114.352z M845.04,1338.316c-0.915-0.123-1.853-0.359-2.791-0.359
		c-119.549-0.001-239.099,0.016-358.647,0.051c-0.617,0-1.234,0.284-1.831,0.431c-0.892,1.693-0.229,3.164,0.923,4.295
		c0.86,0.845,2.051,1.731,3.175,1.851c2.848,0.303,5.74,0.228,8.615,0.229c112.198,0.007,224.396,0.006,336.594,0.004
		c2.557,0,5.114-0.048,7.67-0.05c3.283-0.002,5.329-1.829,6.636-4.608C845.59,1339.716,845.179,1338.985,845.04,1338.316z
		 M442.461,1272.862c0.855,4.761,1.658,5.691,5.089,5.825c2.555,0.1,5.115,0.084,7.674,0.085c15.35,0.007,30.701,0.003,46.051,0.003
		c130.8,0,261.6,0.001,392.399-0.005c3.517,0,7.034-0.052,10.551-0.108c1.305-0.021,2.516-0.373,3.473-1.332
		c1.151-1.155,2.061-2.414,1.714-4.195c-1.719-1.134-3.685-0.801-5.574-0.808c-11.512-0.041-23.025-0.053-34.538-0.054
		c-131.12-0.001-262.239,0.001-393.359,0.005c-9.274,0-18.548-0.005-27.822,0.062
		C446.24,1272.353,444.364,1272.678,442.461,1272.862z M421.378,1120.13c3.603,0.799,7.027,0.614,10.418,0.627
		c14.383,0.051,28.767,0.067,43.15,0.066c127.853-0.013,255.706-0.033,383.559-0.05c10.867-0.002,21.734,0.018,32.601-0.028
		c1.57-0.007,3.146-0.281,4.704-0.528c0.66-0.104,0.871-0.729,0.638-1.495c-0.84-2.76-2.223-4.116-4.497-4.231
		c-2.233-0.112-4.472-0.13-6.708-0.133c-9.589-0.013-19.177-0.005-28.766-0.006c-126.895-0.009-253.789-0.014-380.683-0.038
		c-7.683-0.001-15.329,0.501-22.961,1.309c-4.129,0.438-8.26,0.865-12.383,1.357c-6.026,0.719-12.046,1.485-18.064,2.265
		C422.128,1119.278,421.912,1119.648,421.378,1120.13z M661.979,1351.156c-45.055,0-90.111,0-135.167,0.001
		c-10.226,0-20.451-0.015-30.676,0.02c-1.584,0.005-3.184,0.147-4.74,0.428c-0.38,0.068-0.941,0.985-0.866,1.417
		c0.403,2.315,2.357,4.479,4.25,4.593c3.185,0.191,6.38,0.264,9.572,0.265c67.423,0.014,134.847,0.01,202.271,0.01
		c37.706,0,75.412,0.004,113.119-0.007c2.873,0,5.757,0.025,8.617-0.195c2.436-0.188,3.986-1.791,5.041-3.921
		c0.423-0.854-0.014-2.243-0.815-2.275c-3.184-0.129-6.369-0.318-9.554-0.319C769.346,1351.151,715.663,1351.156,661.979,1351.156z
		 M1361.557,1180.208c-54.316,0-108.632,0-162.947,0c-17.572,0-35.146-0.015-52.718,0.017c-2.546,0.005-5.093,0.198-7.636,0.36
		c-1.061,0.067-1.815,1.716-1.477,3.053c0.337,1.326,1.02,2.459,2.42,2.609c2.527,0.271,5.078,0.428,7.62,0.433
		c17.893,0.035,35.784,0.02,53.677,0.02c124.607,0,249.215,0.003,373.822-0.009c2.87,0,5.748-0.064,8.607-0.285
		c1.354-0.104,2.13-1.202,2.635-2.452c0.747-1.847,0.057-3.454-1.642-3.534c-2.549-0.119-5.103-0.204-7.653-0.204
		C1504.696,1180.205,1433.126,1180.207,1361.557,1180.208z M898.763,1286.089c-1.546-0.169-3.082-0.47-4.62-0.481
		c-8.31-0.062-16.62-0.064-24.931-0.063c-129.452,0.008-258.903,0.021-388.355,0.032c-8.63,0.001-17.26-0.023-25.889,0.036
		c-1.569,0.011-3.141,0.332-4.699,0.587c-0.67,0.11-0.908,0.7-0.723,1.476c0.657,2.746,1.959,4.052,4.439,4.091
		c7.029,0.112,14.061,0.184,21.091,0.183c127.534-0.007,255.068-0.027,382.602-0.045c10.228-0.001,20.456,0.011,30.684-0.011
		c1.914-0.004,3.885,0.133,5.728-0.266C896.75,1291.053,898.615,1289.434,898.763,1286.089z M1360.456,1193.467
		c0-0.017,0-0.033,0-0.051c-57.873,0-115.747-0.003-173.621,0.003c-13.749,0.001-27.498,0.014-41.246,0.072
		c-1.896,0.009-3.813,0.19-5.675,0.538c-0.949,0.178-1.395,1.142-1.419,2.181c-0.041,1.719,1.104,3.239,2.676,3.309
		c3.188,0.141,6.38,0.268,9.571,0.268c139.408,0.013,278.817,0.012,418.227,0.009c2.558,0,5.116,0.002,7.672-0.082
		c0.945-0.03,1.89-0.274,2.822-0.475c1.124-0.242,2.139-2.578,1.788-4.09c-0.255-1.1-1.228-1.431-2.097-1.472
		c-3.191-0.15-6.389-0.202-9.584-0.203C1499.866,1193.465,1430.161,1193.467,1360.456,1193.467z M1359.625,1206.723
		c0-0.016,0-0.031,0-0.047c-57.571,0-115.143-0.003-172.714,0.003c-13.434,0.001-26.867,0.01-40.301,0.074
		c-1.885,0.009-3.782,0.28-5.644,0.603c-0.46,0.079-0.979,0.771-1.167,1.291c-0.717,1.988,0.541,4.107,2.471,4.187
		c2.873,0.117,5.75,0.196,8.626,0.198c24.947,0.015,49.895,0.009,74.843,0.009c112.265,0,224.529,0.001,336.794-0.003
		c3.198,0,6.397,0.001,9.594-0.085c0.938-0.025,1.883-0.298,2.8-0.547c0.996-0.27,2.223-3.029,1.832-4.152
		c-0.351-1.005-1.286-1.299-2.208-1.33c-3.194-0.11-6.391-0.191-9.586-0.192C1496.518,1206.721,1428.071,1206.723,1359.625,1206.723
		z M1354.924,1226.299c67.43,0,134.86,0,202.29-0.003c3.195,0,6.392-0.001,9.586-0.08c0.942-0.022,1.886-0.281,2.814-0.496
		c1.144-0.267,2.258-2.687,1.861-4.067c-0.292-1.018-1.177-1.489-2.093-1.535c-3.188-0.159-6.382-0.262-9.573-0.263
		c-135.818-0.011-271.637-0.01-407.455-0.007c-2.876,0-5.753,0.001-8.627,0.093c-0.927,0.029-1.894,0.234-2.749,0.586
		c-0.508,0.209-0.978,0.797-1.216,1.326c-0.849,1.879,0.399,4.154,2.336,4.231c3.19,0.128,6.385,0.205,9.577,0.206
		C1219.426,1226.301,1287.175,1226.299,1354.924,1226.299z M672.397,1298.816c0-0.017,0-0.032,0-0.049
		c-65.869,0-131.738-0.002-197.606,0.004c-4.796,0.001-9.593,0.025-14.388,0.117c-0.925,0.019-1.904,0.273-2.736,0.674
		c-0.375,0.18-0.704,1.039-0.612,1.503c0.446,2.253,1.875,3.827,3.589,3.876c4.792,0.137,9.588,0.242,14.382,0.242
		c127.901-0.005,255.802-0.024,383.703-0.042c6.075,0,12.15,0.007,18.225-0.012c1.276-0.004,2.571,0.013,3.824-0.19
		c2.363-0.385,4.042-1.794,4.964-3.978c0.163-0.386-0.255-1.473-0.481-1.496c-2.839-0.296-5.693-0.624-8.543-0.625
		C808.611,1298.808,740.504,1298.816,672.397,1298.816z M1273.278,1430.249c-3.836,0-7.673,0-11.509,0
		c-45.715,0-91.43-0.007-137.146,0.013c-3.187,0.001-6.375,0.169-9.561,0.314c-1.153,0.052-2.039,1.453-1.904,2.826
		c0.188,1.904,1.256,3.344,2.729,3.415c3.188,0.153,6.38,0.285,9.57,0.286c97.185,0.014,194.369,0.011,291.554,0.01
		c2.558,0,5.116-0.088,7.672-0.015c2.467,0.07,4.302-1.075,5.792-2.843c0.57-0.677,0.944-1.578,1.208-2.438
		c0.271-0.878-0.95-1.502-3.04-1.53c-2.876-0.04-5.753-0.038-8.631-0.038C1371.102,1430.247,1322.19,1430.248,1273.278,1430.249z
		 M1340.519,1272.31c0-0.004,0-0.007,0-0.01c-50.504,0-101.008-0.001-151.512,0c-15.981,0-31.964,0.001-47.945,0.017
		c-2.235,0.002-4.473,0.053-6.706,0.155c-1.799,0.083-2.98,1.713-3.12,4.1c-0.062,1.067,1.114,1.974,2.717,2.021
		c3.192,0.096,6.387,0.174,9.58,0.175c91.737,0.008,183.475,0.006,275.212,0.005c38.677,0,77.354,0.008,116.03-0.009
		c3.192-0.001,6.391-0.071,9.574-0.278c1.755-0.114,2.741-1.422,3.437-2.951c0.638-1.401,0.128-2.843-1.126-2.911
		c-2.546-0.138-5.096-0.3-7.644-0.301C1472.851,1272.306,1406.685,1272.31,1340.519,1272.31z M1129.318,1286.207
		c-0.348,0.599-0.69,1.134-0.974,1.7c-0.14,0.279-0.182,0.611-0.243,0.925c-0.278,1.407,0.503,2.796,1.667,2.835
		c3.191,0.108,6.386,0.227,9.578,0.228c36.449,0.016,72.897,0.01,109.346,0.01c92.4,0,184.801,0,277.201,0
		c2.878,0,5.756,0.005,8.633-0.021c0.957-0.008,1.914-0.084,2.868-0.162c2.078-0.17,4.288-2.984,3.605-4.789
		c-0.533-1.408-1.993-1.292-3.216-1.311c-3.197-0.047-6.395-0.042-9.592-0.042c-109.026-0.002-218.053-0.001-327.078-0.001
		c-20.782,0-41.564-0.02-62.347,0.021C1135.602,1285.605,1132.386,1285.16,1129.318,1286.207z M1533.794,1299.703
		c-1.021-0.295-1.914-0.742-2.824-0.779c-2.871-0.118-5.749-0.104-8.624-0.104c-128.132-0.004-256.264-0.003-384.396-0.001
		c-2.876,0-5.752-0.002-8.626,0.07c-0.946,0.024-1.889,0.266-2.828,0.436c-0.766,0.139-1.79,1.841-1.882,3.077
		c-0.102,1.376,0.778,2.481,2.154,2.523c3.511,0.107,7.023,0.208,10.535,0.209c127.493,0.01,254.985,0.009,382.479,0.008
		c2.557,0,5.113,0.009,7.669-0.025c0.955-0.014,1.922-0.065,2.858-0.236c1.345-0.245,2.304-1.12,2.815-2.338
		C1533.482,1301.694,1533.564,1300.731,1533.794,1299.703z M668.709,1311.945c0-0.012,0-0.023,0-0.036
		c-64.259,0-128.518-0.002-192.777,0.01c-2.874,0-5.75,0.103-8.622,0.229c-0.603,0.027-1.304,0.239-1.753,0.613
		c-0.387,0.322-0.752,1.055-0.657,1.507c0.478,2.276,1.894,3.835,3.551,3.928c2.551,0.143,5.109,0.237,7.664,0.237
		c127.559,0,255.119-0.012,382.678-0.025c2.238,0,4.475-0.054,6.712-0.048c2.849,0.008,4.788-1.536,6.262-3.751
		c0.285-0.429,0.143-1.197,0.053-1.787c-0.028-0.188-0.521-0.418-0.811-0.434c-3.173-0.17-6.347-0.424-9.521-0.425
		C797.228,1311.939,732.969,1311.945,668.709,1311.945z M1323.186,1318.41c62.625,0,125.252,0,187.878-0.001
		c2.875,0,5.751,0.006,8.626-0.028c0.956-0.011,1.915-0.096,2.863-0.22c1.438-0.188,3.12-2.383,3.164-4.308
		c0.011-0.465-0.565-1.322-0.934-1.357c-2.837-0.272-5.69-0.529-8.539-0.53c-127.808-0.023-255.616-0.021-383.424-0.016
		c-2.556,0-5.115,0.003-7.664,0.148c-0.908,0.052-1.887,0.38-2.664,0.856c-1.168,0.715-1.511,1.934-1.399,3.297
		c0.062,0.771,0.968,1.871,1.766,1.897c3.19,0.105,6.382,0.25,9.573,0.25C1196.016,1318.414,1259.601,1318.41,1323.186,1318.41z
		 M1417.68,1443.56c-3.439-0.043-6.939-0.125-10.438-0.125c-68.704-0.008-137.408-0.006-206.112-0.006
		c-24.605,0-49.211-0.009-73.816,0.013c-2.867,0.002-5.735,0.148-8.602,0.277c-1.215,0.055-1.983,1.392-1.716,2.836
		c0.341,1.838,1.487,3.334,2.837,3.418c2.863,0.177,5.733,0.336,8.602,0.336c92.031,0.018,184.062,0.015,276.094,0.012
		c2.236,0,4.48,0.062,6.708-0.086c3.111-0.207,5.327-1.929,6.757-4.618C1418.213,1445.201,1417.836,1444.467,1417.68,1443.56z
		 M1502.844,1093.674c0.016-0.379,0.03-0.757,0.045-1.135c-1.231-0.155-2.46-0.359-3.697-0.458
		c-10.824-0.863-21.686-1.409-32.468-2.642c-10.832-1.238-21.663-1.443-32.53-1.442c-82.435,0.004-164.869-0.025-247.304-0.032
		c-28.756-0.003-57.513,0.012-86.269,0.066c-3.155,0.006-6.373-0.504-9.425,0.643c-0.225,1.415,0.163,2.646,1.196,3.481
		c0.955,0.771,2.075,1.72,3.197,1.829c3.167,0.31,6.373,0.292,9.563,0.292c126.527,0.012,253.056,0.014,379.583,0.004
		c4.792-0.001,9.585-0.1,14.376-0.207C1500.359,1094.045,1501.6,1093.813,1502.844,1093.674z M1489.844,1365.062
		c-3.374-1.151-6.919-0.613-10.401-0.615c-97.773-0.045-195.547-0.055-293.32-0.062c-22.047-0.002-44.095,0.021-66.142,0.042
		c-2.235,0.002-4.473,0.032-6.706,0.125c-1.965,0.082-3.111,1.58-3.153,3.975c-0.019,1.062,1.158,2.082,2.655,2.134
		c3.189,0.111,6.382,0.205,9.573,0.206c41.537,0.013,83.075,0.009,124.613,0.009c76.046,0,152.093,0.001,228.139-0.005
		c3.194,0,6.396,0.046,9.579-0.171c1.191-0.081,2.521-0.617,3.456-1.363C1489.378,1368.344,1490.189,1366.904,1489.844,1365.062z
		 M1122.121,1457.303c-0.175,4.156,0.958,5.831,4.2,5.96c3.189,0.127,6.387,0.124,9.58,0.125
		c64.854,0.006,129.706,0.004,194.559,0.004c19.487,0,38.976,0.003,58.463-0.004c2.555-0.001,5.113,0.017,7.664-0.109
		c3.152-0.156,5.284-2.002,6.786-4.604c0.183-0.316-0.332-1.508-0.58-1.526c-3.173-0.237-6.356-0.448-9.538-0.449
		c-64.214-0.022-128.428-0.018-192.642-0.018c-23.001,0-46.003-0.02-69.005,0.023
		C1128.441,1456.71,1125.219,1456.223,1122.121,1457.303z M1294.827,1377.679c-57.876,0-115.751-0.003-173.626,0.01
		c-3.194,0-6.389,0.104-9.581,0.222c-1.562,0.058-2.629,1.504-2.589,3.333c0.03,1.35,0.978,2.486,2.254,2.531
		c3.192,0.113,6.388,0.225,9.581,0.226c43.807,0.015,87.612,0.01,131.419,0.01c70.984,0,141.97,0.002,212.955-0.005
		c3.196-0.001,6.399,0.03,9.587-0.157c2.518-0.149,3.935-1.847,4.714-4.121c0.261-0.762,0.036-1.441-0.632-1.492
		c-3.161-0.238-6.331-0.531-9.497-0.533C1411.216,1377.671,1353.021,1377.679,1294.827,1377.679z M1287.038,1397.252
		c55.634,0,111.268,0.001,166.9-0.003c2.878,0,5.755-0.061,8.633-0.047c2.477,0.013,4.25-1.161,5.474-3.208
		c0.303-0.506,0.524-1.253,0.378-1.775c-0.125-0.447-0.816-1.02-1.282-1.043c-3.188-0.158-6.384-0.245-9.577-0.246
		c-90.485-0.021-180.97-0.031-271.455-0.038c-22.381-0.001-44.763,0.008-67.145,0.044c-2.869,0.005-5.741,0.155-8.604,0.361
		c-0.532,0.039-1.312,0.57-1.47,1.044c-0.284,0.854-0.458,1.935-0.169,2.737c0.272,0.755,1.16,1.752,1.851,1.812
		c3.174,0.279,6.374,0.349,9.563,0.35C1175.77,1397.257,1231.403,1397.252,1287.038,1397.252z M1284.435,1404.021
		c0-0.014,0-0.026,0-0.039c-32.589,0-65.179-0.005-97.769,0.002c-22.365,0.004-44.731,0.012-67.097,0.054
		c-2.867,0.005-5.736,0.207-8.602,0.365c-0.919,0.051-1.959,1.744-1.893,2.934s1.185,2.886,2.025,2.923
		c3.187,0.141,6.375,0.327,9.563,0.328c107.674,0.017,215.347,0.015,323.021,0.01c2.556,0,5.11-0.048,7.665-0.099
		c2.535-0.05,4.002-1.685,5.262-3.61c0.481-0.736,0.053-2.28-0.691-2.327c-3.164-0.201-6.33-0.516-9.496-0.518
		C1392.428,1404.012,1338.432,1404.021,1284.435,1404.021z M1111.859,1423.761c3.756,0.037,7.263,0.1,10.769,0.101
		c102.663,0.005,205.326,0.004,307.988,0c2.559,0,5.117-0.048,7.675-0.064c2.472-0.017,4.222-1.301,5.526-3.249
		c0.316-0.472,0.504-1.237,0.354-1.753c-0.137-0.468-0.793-1.082-1.254-1.111c-3.499-0.217-7.008-0.419-10.513-0.42
		c-103.302-0.021-206.604-0.017-309.906-0.015c-2.559,0.001-5.117-0.004-7.675,0.069c-0.947,0.027-1.968,0.095-2.812,0.468
		s-1.57,1.199-1.338,2.261C1110.93,1421.23,1111.402,1422.366,1111.859,1423.761z M500.375,1364.933
		c-0.341,1.987,0.426,3.445,1.689,4.429c0.944,0.735,2.271,1.262,3.463,1.342c3.183,0.212,6.385,0.166,9.581,0.166
		c97.471,0.006,194.942,0.005,292.414,0.003c2.876,0,5.752,0.003,8.628-0.047c0.952-0.017,1.917-0.121,2.85-0.312
		c1.697-0.348,2.704-1.554,3.497-3.001c0.727-1.327,0.186-2.775-1.146-2.821c-3.507-0.122-7.016-0.259-10.525-0.259
		c-99.708-0.014-199.417-0.012-299.125-0.011c-2.557,0-5.115-0.039-7.669,0.042C502.779,1364.502,501.534,1364.777,500.375,1364.933
		z M552.097,1106.766c1.435,0.19,2.662,0.467,3.894,0.496c5.112,0.125,10.225,0.242,15.337,0.243
		c95.886,0.014,191.772,0.01,287.658,0.01c7.67,0,15.341,0.024,23.012-0.03c1.574-0.011,3.153-0.281,4.716-0.523
		c0.63-0.097,0.815-0.712,0.597-1.486c-0.666-2.359-2.076-4.016-4.629-4.119c-4.148-0.17-8.305-0.201-12.458-0.201
		c-84.06,0.009-168.12,0.133-252.179-0.039c-16.358-0.033-32.52,1.901-48.756,3.156c-4.458,0.345-8.906,0.833-13.354,1.287
		C554.694,1105.685,553.345,1105.471,552.097,1106.766z M671.895,1430.248c-34.175,0-68.351-0.002-102.526,0.003
		c-2.875,0-5.752-0.032-8.621,0.103c-0.84,0.04-1.701,0.523-2.469,0.954c-0.735,0.412-0.122,2.068,1.149,3.264
		c1.419,1.333,2.922,2.475,5.002,2.482c1.597,0.006,3.193,0.058,4.79,0.058c69.309,0.003,138.618,0.004,207.927-0.006
		c1.912,0,3.827-0.079,5.735-0.206c1.425-0.095,2.187-1.134,2.829-2.269c1.211-2.143,0.433-4.134-1.713-4.209
		c-3.19-0.112-6.384-0.166-9.576-0.167C740.246,1430.244,706.07,1430.248,671.895,1430.248z M663.023,1377.679
		c-47.648,0-95.296-0.006-142.944,0.015c-2.862,0.002-5.723,0.217-8.584,0.335c-0.804,0.033-1.294,1.417-0.851,2.243
		c1.115,2.077,2.581,3.638,5.157,3.656c1.918,0.014,3.836,0.079,5.754,0.079c93.697,0.004,187.394,0.004,281.091-0.002
		c2.237-0.001,4.478-0.012,6.709-0.145c2.196-0.131,3.289-1.698,4.122-3.506c0.415-0.9-0.06-2.253-0.855-2.287
		c-3.178-0.136-6.356-0.37-9.534-0.372C756.4,1377.671,709.711,1377.679,663.023,1377.679z M805.235,1391.8
		c-3.356-1.52-6.925-0.838-10.389-0.842c-49.222-0.051-98.445-0.036-147.667-0.036c-38.355-0.001-76.71-0.009-115.065,0.015
		c-3.183,0.001-6.365,0.201-9.546,0.331c-0.77,0.031-1.407,1.475-1.011,2.17c1.157,2.029,2.661,3.615,5.168,3.706
		c2.554,0.093,5.112,0.104,7.668,0.104c86.299,0.005,172.598,0.005,258.897-0.002c2.556,0,5.113-0.03,7.665-0.146
		C803.614,1396.98,804.451,1395.895,805.235,1391.8z M572.066,1443.657c-0.128,0.819-0.495,1.56-0.269,1.984
		c1.434,2.691,3.655,4.38,6.773,4.608c1.591,0.117,3.196,0.071,4.795,0.071c63.006,0.002,126.013,0.002,189.02-0.002
		c1.599,0,3.199-0.018,4.795-0.091c0.626-0.029,1.245-0.232,1.866-0.363c1.452-0.305,2.513-2.519,2.271-4.753
		c-0.137-1.261-1.208-1.447-2.093-1.522c-1.907-0.162-3.832-0.154-5.75-0.154c-64.925-0.007-129.851-0.008-194.776,0.004
		C576.473,1443.44,574.249,1443.583,572.066,1443.657z M1078.994,1074.96c-0.176,0.852-0.569,1.559-0.366,1.975
		c1.184,2.429,3.088,4.126,5.858,4.306c3.182,0.206,6.382,0.172,9.573,0.172c73.451,0.007,146.901,0.004,220.353,0.004
		c2.118,0,4.235,0,6.587,0c-5.012-2.104-10.062-2.432-15.155-2.609c-24.253-0.851-48.505-1.739-72.757-2.615
		c-2.234-0.081-4.469-0.152-6.701-0.261c-32.229-1.557-64.48-1.757-96.737-1.541c-14.37,0.097-28.739,0.234-43.109,0.37
		C1084.001,1074.784,1081.466,1074.892,1078.994,1074.96z M664.91,1404.021c-39.926,0-79.852-0.001-119.778,0.002
		c-2.875,0-5.75-0.018-8.623,0.072c-0.924,0.028-1.846,0.342-2.754,0.584c-0.717,0.192-0.961,0.752-0.661,1.507
		c1.015,2.554,2.696,4.278,5.629,4.328c2.874,0.049,5.748,0.082,8.622,0.083c52.383,0.005,104.766,0.004,157.149,0.003
		c27.15,0,54.3,0.007,81.449-0.012c2.87-0.001,5.742-0.095,8.607-0.249c1.654-0.089,2.886-1.76,3.304-4.098
		c0.142-0.796-0.105-1.203-0.836-1.494c-3.083-1.229-6.302-0.694-9.455-0.697C746.679,1404.01,705.794,1404.024,664.91,1404.021z
		 M1257.88,1469.946c-39.624,0-79.248-0.004-118.872,0.01c-3.192,0.001-6.385,0.118-9.577,0.206
		c-0.84,0.023-1.564,1.196-1.341,2.079c0.613,2.43,1.781,3.785,3.605,3.871c3.188,0.15,6.381,0.245,9.571,0.246
		c51.447,0.014,102.895,0.01,154.342,0.01c25.883,0,51.767,0.006,77.649-0.009c2.872-0.002,5.759,0.024,8.614-0.23
		c2.71-0.241,4.724-1.8,5.905-4.259c0.16-0.333-0.308-1.403-0.545-1.424c-2.848-0.244-5.707-0.479-8.564-0.48
		C1338.406,1469.937,1298.143,1469.946,1257.88,1469.946z M681.851,1456.681c-29.048,0-58.097-0.009-87.145,0.018
		c-2.542,0.002-5.087,0.188-7.616,0.436c-0.293,0.028-0.852,1.192-0.685,1.491c1.477,2.626,3.635,4.472,6.762,4.634
		c3.185,0.166,6.381,0.128,9.573,0.129c53.628,0.006,107.256,0.005,160.884,0.001c2.873,0,5.747-0.003,8.618-0.08
		c0.941-0.024,1.907-0.191,2.807-0.469c1.345-0.415,1.918-1.503,2.141-2.844c0.246-1.479-0.422-2.902-1.527-2.959
		c-2.858-0.147-5.72-0.338-8.58-0.341C738.671,1456.671,710.261,1456.681,681.851,1456.681z M668.601,1417.248
		c-37.04,0-74.079-0.002-111.119,0.004c-2.874,0-5.749-0.012-8.619,0.106c-0.916,0.037-1.885,0.35-2.691,0.789
		c-0.364,0.199-0.67,1.119-0.52,1.54c0.806,2.266,2.473,3.758,4.867,3.963c2.854,0.244,5.738,0.207,8.608,0.207
		c73.441,0.01,146.882,0.01,220.323,0.002c2.872-0.001,5.745-0.074,8.615-0.183c0.614-0.023,1.229-0.316,1.822-0.542
		c0.812-0.31,2.196-3.522,1.644-4.244c-0.503-0.655-1.456-1.285-2.251-1.341c-3.178-0.225-6.372-0.29-9.561-0.291
		C742.68,1417.242,705.641,1417.248,668.601,1417.248z M1154.212,1511.001c1.544,3.403,3.85,5.211,7.552,4.973
		c1.907-0.123,3.829-0.008,5.744-0.008c50.435,0,100.869,0,151.303,0c1.597,0,3.201-0.112,4.787,0.016
		c4.117,0.332,7.405-1.364,10.358-3.996c0.628-0.559,0.712-1.062,0.199-1.568c-0.219-0.216-0.423-0.605-0.657-0.623
		c-2.533-0.198-5.071-0.472-7.608-0.474c-54.265-0.025-108.529-0.021-162.794-0.01c-2.23,0-4.476,0.007-6.684,0.266
		C1155.624,1509.669,1154.923,1510.518,1154.212,1511.001z M1135.508,1484.304c0.221,0.854,0.427,1.769,0.704,2.661
		c0.089,0.287,0.328,0.556,0.56,0.765c0.465,0.419,0.926,0.888,1.476,1.154c0.556,0.269,1.213,0.423,1.832,0.444
		c2.233,0.08,4.471,0.111,6.706,0.111c70.294,0.005,140.588,0.005,210.881,0.001c2.236-0.001,4.474-0.013,6.708-0.08
		c2.773-0.082,4.787-1.606,6.409-3.675c0.321-0.41,0.162-1.197,0.231-1.873c-3.423-1.101-6.959-0.579-10.437-0.582
		c-58.152-0.049-116.305-0.054-174.456-0.06c-15.018-0.002-30.035,0.01-45.052,0.057
		C1139.217,1483.234,1137.246,1482.844,1135.508,1484.304z M1249.63,1496.265c-20.779,0-41.559-0.006-62.338,0.002
		c-12.147,0.005-24.296,0.003-36.443,0.075c-1.884,0.011-3.771,0.366-5.646,0.642c-0.679,0.1-0.899,0.712-0.668,1.483
		c0.696,2.318,2.044,3.976,4.628,4.089c2.871,0.125,5.749,0.149,8.624,0.15c60.74,0.008,121.479,0.007,182.22,0.008
		c1.598,0,3.197-0.023,4.795,0.024c2.339,0.07,4.401-0.666,6.218-2.086c0.961-0.752,2.213-1.262,2.295-2.805
		c0.048-0.893-0.892-1.442-2.985-1.496c-2.237-0.058-4.475-0.087-6.713-0.087C1312.288,1496.26,1280.959,1496.261,1249.63,1496.265z
		 M1239.655,1522.351c-22.01,0-44.02-0.014-66.029,0.02c-2.215,0.003-4.438,0.222-6.636,0.505c-0.331,0.042-0.9,1.128-0.757,1.494
		c0.988,2.511,2.752,4.353,5.517,4.688c2.204,0.267,4.458,0.163,6.689,0.163c40.191,0.006,80.384,0.004,120.575,0.001
		c1.595,0,3.19,0.017,4.784-0.034c4.055-0.129,7.226-2.086,9.935-4.929c0.151-0.159,0.088-0.597,0.013-0.875
		c-0.069-0.258-0.271-0.669-0.441-0.683c-1.899-0.154-3.804-0.335-5.706-0.337C1284.95,1522.342,1262.302,1522.35,1239.655,1522.351
		z M687.985,1469.947c-25.855,0-51.711-0.011-77.566,0.017c-2.538,0.003-5.075,0.232-7.61,0.393
		c-0.242,0.016-0.67,0.301-0.664,0.446c0.027,0.605-0.001,1.349,0.33,1.784c1.596,2.101,3.608,3.601,6.384,3.679
		c2.233,0.063,4.468,0.098,6.702,0.099c49.157,0.005,98.314,0.007,147.472-0.004c2.551,0,5.105-0.065,7.654-0.177
		c2.004-0.088,3.011-1.418,3.146-3.972c0.043-0.815-0.846-1.99-1.591-2.02c-2.548-0.099-5.098-0.233-7.648-0.235
		C739.058,1469.94,713.522,1469.947,687.985,1469.947z M701.149,1092.862c1.874,0.647,2.46,1.013,3.058,1.032
		c5.113,0.167,10.229,0.373,15.343,0.378c49.893,0.04,99.785,0.047,149.677,0.045c2.232,0,4.47-0.115,6.692-0.32
		c0.455-0.042,1.095-0.666,1.21-1.13c0.132-0.534-0.082-1.28-0.396-1.776c-1.054-1.663-2.384-2.996-4.559-3.018
		c-1.278-0.013-2.557-0.08-3.834-0.08c-35.181,0.004-70.361-0.007-105.542,0.046c-4.473,0.007-8.955,0.206-13.415,0.554
		c-14.661,1.141-29.314,2.388-43.969,3.609C704.48,1092.279,703.557,1092.483,701.149,1092.862z M619.166,1483.753
		c-0.035,0.626-0.329,1.409-0.059,1.77c1.798,2.405,4.127,3.912,7.273,3.888c2.55-0.02,5.102,0.063,7.652,0.062
		c24.874-0.006,49.747-0.021,74.62-0.029c17.539-0.005,35.078,0.016,52.617-0.018c2.54-0.005,5.096-0.11,7.611-0.43
		c1.351-0.171,1.987-1.393,2.221-2.734c0.207-1.192-0.745-2.72-1.832-2.787c-1.907-0.117-3.817-0.25-5.726-0.257
		c-8.291-0.028-16.582-0.014-24.873-0.014c-36.672-0.001-73.345-0.014-110.017,0.018
		C625.489,1483.225,622.278,1482.794,619.166,1483.753z M710.935,1509.303c-16.266,0-32.532-0.019-48.798,0.025
		c-1.884,0.005-3.771,0.335-5.647,0.582c-0.214,0.027-0.435,0.468-0.535,0.757c-0.08,0.231-0.086,0.624,0.056,0.774
		c2.726,2.888,5.902,4.793,10.058,4.521c0.635-0.042,1.275,0,1.913,0c30.618,0,61.236,0.004,91.854-0.011
		c1.589-0.001,3.182-0.128,4.767-0.268c1.333-0.117,2.445-1.901,2.373-3.684c-0.045-1.114-1.282-2.413-2.469-2.465
		c-2.547-0.112-5.096-0.222-7.645-0.225C741.553,1509.292,726.244,1509.301,710.935,1509.303z M1235.644,1535.556
		c0-0.017,0-0.034,0-0.051c-15.974,0-31.947-0.018-47.921,0.018c-2.544,0.006-5.093,0.197-7.625,0.448
		c-0.289,0.029-0.835,1.186-0.666,1.518c1.368,2.707,3.5,4.553,6.618,4.844c1.901,0.177,3.829,0.094,5.745,0.094
		c27.475,0.004,54.95,0.002,82.425-0.001c1.917-0.001,3.836,0.033,5.75-0.049c4.347-0.186,7.819-2.313,10.948-5.121
		c0.133-0.12,0.044-0.802-0.096-0.86c-0.796-0.34-1.638-0.803-2.465-0.805C1270.787,1535.545,1253.215,1535.556,1235.644,1535.556z
		 M701.381,1496.309c-15.028,0-30.057-0.003-45.085,0.002c-5.436,0.001-10.872-0.007-16.307,0.059
		c-0.924,0.012-1.854,0.347-2.76,0.606c-0.184,0.053-0.334,0.43-0.385,0.681c-0.062,0.306-0.139,0.765,0.023,0.937
		c2.25,2.382,4.782,4.198,8.285,4.107c2.237-0.059,4.476,0.011,6.714,0.011c35.173,0.001,70.345,0.002,105.518-0.003
		c2.558-0.001,5.115-0.034,7.672-0.104c0.628-0.017,1.331-0.092,1.859-0.39c1.167-0.66,1.772-1.749,1.885-3.108
		c0.113-1.354-0.752-2.429-2.21-2.501c-2.869-0.142-5.742-0.28-8.613-0.284C739.112,1496.297,720.247,1496.309,701.381,1496.309z
		 M720.699,1522.35c-7.03,0-14.06-0.019-21.089,0.005c-7.028,0.024-14.055,0.071-21.082,0.178c-0.477,0.008-1.181,0.508-1.35,0.944
		c-0.175,0.454-0.029,1.344,0.319,1.641c3.54,3.012,7.577,4.209,12.319,4.176c22.687-0.161,45.375-0.067,68.062-0.078
		c1.595-0.001,3.191-0.083,4.783-0.191c1.969-0.133,3.224-1.903,2.82-4.139c-0.163-0.905-0.621-1.91-1.708-2.05
		c-1.885-0.243-3.791-0.456-5.688-0.462C745.624,1522.333,733.161,1522.353,720.699,1522.35z M1225.615,1555.427
		c0,0.004,0,0.009,0,0.013c8.937,0,17.872-0.002,26.808,0c5.002,0.001,9.268-1.927,13.07-5.026c0.143-0.116,0.061-0.848-0.061-0.891
		c-0.834-0.298-1.705-0.685-2.564-0.686c-22.021-0.032-44.041-0.022-66.062-0.005c-0.628,0.001-1.263,0.133-1.879,0.272
		c-0.259,0.059-0.674,0.287-0.681,0.453c-0.024,0.594-0.122,1.365,0.193,1.765c2.074,2.628,4.719,4.146,8.197,4.121
		C1210.296,1555.39,1217.956,1555.427,1225.615,1555.427z M699.562,1535.859c0.082,0.668-0.071,1.542,0.263,1.812
		c3.813,3.072,8.031,4.847,13.112,4.799c15.322-0.145,30.647-0.05,45.971-0.061c0.955-0.001,1.911-0.091,2.865-0.159
		c1.726-0.125,3.178-2.303,2.632-4.313c-0.218-0.804-0.99-1.677-1.743-2.056c-0.792-0.397-1.862-0.315-2.811-0.316
		c-19.155-0.018-38.309-0.021-57.464-0.005C701.446,1535.559,700.506,1535.754,699.562,1535.859z M743.611,1548.815
		c0,0.072,0,0.145-0.001,0.218c-5.735,0-11.47-0.009-17.205,0.01c-0.711,0.003-1.051,0.521-0.915,1.325
		c0.047,0.279,0.214,0.621,0.436,0.778c3.999,2.817,8.326,4.475,13.346,4.343c6.377-0.167,12.762-0.025,19.142-0.085
		c1.254-0.012,2.507-0.318,3.755-0.52c1.001-0.161,1.686-1.466,1.651-3.073c-0.031-1.425-0.939-2.674-2.039-2.776
		c-0.95-0.088-1.903-0.206-2.855-0.21C753.821,1548.804,748.716,1548.815,743.611,1548.815z M1236.734,1562.393
		c-1.313-0.117-2.559-0.327-3.804-0.323c-6.957,0.021-13.914,0.091-20.871,0.164c-0.297,0.003-0.768,0.133-0.854,0.335
		c-0.217,0.503-0.548,1.298-0.325,1.595c1.981,2.644,4.566,4.189,7.973,4.446c6.242,0.472,11.898-1.153,17.122-4.452
		C1236.37,1563.909,1236.432,1563.132,1236.734,1562.393z M762.845,1567.26c1.329-3.842,0.793-5.074-2.326-5.136
		c-1.869-0.037-3.743,0.14-5.611,0.264c-0.224,0.015-0.638,0.377-0.61,0.455c0.189,0.542,0.333,1.261,0.749,1.536
		C757.411,1565.948,759.958,1567.095,762.845,1567.26z"/>
	<path d="M1641.547,516.917c0.832,0.9,1.83,1.701,2.473,2.725c2.545,4.057,5.003,8.169,7.445,12.29
		c1.301,2.195,1.023,3.637-0.878,4.912c-2.121,1.421-4.303,2.753-6.39,4.222c-0.375,0.265-0.493,0.99-0.574,1.526
		c-0.029,0.189,0.368,0.568,0.638,0.658c2.417,0.803,4.891,1.452,7.271,2.351c10.75,4.063,18.368,11.233,22.183,22.274
		c2.091,6.049,1.885,11.913-0.702,17.717c-0.519,1.162-1.264,2.222-1.806,3.375c-0.395,0.841-0.626,1.759-0.9,2.554
		c0.958,1.243,2.251,1.245,3.458,1.455c5.41,0.942,10.494,2.781,15.125,5.732c7.52,4.792,12.977,11.191,15.611,19.89
		c2.656,8.773,0.529,16.381-5.2,23.192c-2.491,2.961-5.628,5.17-8.935,7.158c-7.665,4.606-15.316,9.234-22.942,13.902
		c-1.878,1.149-3.64,2.488-5.229,3.584c-0.203,2.888,1.588,4.513,2.498,6.5c0.818,1.787,0.565,2.972-1.159,4.023
		c-2.148,1.31-4.364,2.508-6.584,3.773c-0.917-0.779-1.846-1.255-2.313-2.015c-4.522-7.341-8.99-14.717-13.421-22.114
		c-1.207-2.015-0.788-3.502,1.297-4.827c1.606-1.021,3.274-1.965,4.995-2.773c0.448-0.21,1.357,0.03,1.771,0.39
		c0.947,0.821,1.713,1.852,2.566,2.783c1.055,1.151,2.123,2.289,3.338,3.594c2.721-1.562,5.227-2.949,7.681-4.422
		c6.298-3.779,12.604-7.547,18.842-11.425c2.157-1.341,4.315-2.79,6.136-4.54c4.551-4.374,5.75-9.817,4.186-15.834
		c-0.726-2.793-1.952-5.462-3.922-7.606c-7.329-7.981-16.314-12.104-27.288-11.222c-1.558,0.125-3.207,0.512-4.585,1.222
		c-8.503,4.377-16.627,9.385-24.548,14.81c0.3,1.198,0.377,2.162,0.77,2.972c3.271,6.747,2.956,6.227-3.6,10.064
		c-0.771,0.451-1.728,0.583-2.509,0.834c-0.62-0.527-1.249-0.849-1.564-1.362c-4.682-7.615-9.335-15.247-13.959-22.896
		c-0.975-1.612-0.6-3.075,0.958-4.099c1.333-0.877,2.688-1.722,4.07-2.519c1.822-1.051,3.009-0.893,4.208,0.529
		c1.431,1.695,2.83,3.417,4.402,5.321c1.275-0.464,2.534-0.712,3.571-1.333c8.222-4.916,16.405-9.896,24.59-14.875
		c1.089-0.663,2.144-1.392,3.164-2.157c7.521-5.635,7.822-14.037,4.935-20.582c-1.85-4.193-4.734-7.563-8.523-10.134
		c-6.899-4.681-14.551-6.356-22.778-5.504c-1.239,0.128-2.568,0.47-3.625,1.102c-7.67,4.586-15.288,9.26-22.892,13.955
		c-0.478,0.295-0.701,1.003-1.261,1.849c0.643,1.541,1.384,3.279,2.095,5.03c1.11,2.74,0.734,3.819-1.936,5.483
		c-1.082,0.675-2.192,1.309-3.311,1.926c-1.675,0.925-2.978,0.624-4.012-1.078c-4.646-7.639-9.257-15.297-13.859-22.961
		c-0.688-1.145-0.385-2.707,0.681-3.357c2.174-1.326,4.368-2.627,6.628-3.794c0.4-0.207,1.391,0.099,1.719,0.492
		c1.615,1.94,3.1,3.989,4.724,6.123c1.007-0.244,2.002-0.257,2.739-0.699c12.328-7.383,24.631-14.808,36.91-22.27
		c0.778-0.473,1.323-1.328,1.89-1.915c0.049-3.207-2.814-5.1-3.076-8.375C1634.948,519.892,1637.927,518.214,1641.547,516.917z"/>
	<path d="M1507.092,389.602c0.797-0.3,1.861-0.367,2.333-0.931c3.283-3.92,6.477-7.917,9.632-11.942c1.803-2.3,1.7-3.4-0.318-5.887
		c-0.804-0.991-1.706-1.902-2.504-2.898c-0.835-1.043-0.93-2.562-0.203-3.562c1.473-2.032,2.691-4.339,5.689-5.359
		c1.109,0.782,2.436,1.634,3.673,2.601c11.089,8.665,12.146,9.592,11.621,10.91c-1.934,4.846-5.844,8.292-8.989,12.257
		c-12.316,15.531-24.773,30.951-37.167,46.422c-1.599,1.995-3.163,4.02-4.675,6.081c-0.607,0.829-0.582,1.905,0.086,2.625
		c1.298,1.398,2.785,2.618,4.159,3.948c0.979,0.949,1.218,2.516,0.484,3.468c-1.361,1.766-2.765,3.503-4.204,5.206
		c-0.775,0.917-2.508,1.05-3.499,0.268c-4.262-3.366-8.507-6.752-12.733-10.162c-1.047-0.844-1.24-2.263-0.59-3.476
		c0.882-1.647,1.798-3.277,2.641-4.944c0.082-0.164-0.208-0.743-0.387-0.773c-0.922-0.157-1.873-0.321-2.799-0.26
		c-13.74,0.905-24.135-5.193-31.991-15.861c-7.358-9.993-8.589-21.159-4.436-32.784c3.684-10.31,10.478-18.28,19.766-23.942
		c11.364-6.928,23.021-6.943,34.546-0.305c9.581,5.519,15.983,13.592,18.701,24.419c0.232,0.926,0.263,1.901,0.464,2.838
		C1506.524,388.168,1506.793,388.75,1507.092,389.602z M1470.142,424.11c6.299-0.13,11.938-2.08,16.218-6.808
		c3.191-3.524,6.217-7.261,8.853-11.212c3.326-4.983,4.093-10.584,2.524-16.446c-2.291-8.562-7.84-14.428-15.503-18.387
		c-8.323-4.301-16.579-3.82-24.477,1.168c-5.496,3.472-9.77,8.178-12.499,14.087c-4.066,8.8-3.424,17.332,2.281,25.258
		c3.409,4.738,7.881,8.242,13.31,10.499C1463.832,423.509,1466.893,424.22,1470.142,424.11z"/>
	<path d="M584.971,320.133c-2.988,1.477-5.264,2.621-7.558,3.727c-1.06,0.511-2.779,0.018-3.348-1.027
		c-1.218-2.236-2.411-4.491-3.471-6.804c-0.181-0.396,0.24-1.193,0.577-1.667c0.356-0.499,0.895-0.924,1.44-1.224
		c9.229-5.074,18.47-10.13,27.721-15.164c0.542-0.295,1.203-0.496,1.812-0.508c0.588-0.011,1.338,0.103,1.747,0.466
		c1.959,1.74,2.902,4.143,3.874,6.488c0.403,0.973-0.102,1.962-0.884,2.506c-3.127,2.174-6.325,4.245-9.383,6.279
		c0.343,1.67,1.225,2.507,2.28,3.225c5.808,3.949,11.603,7.917,17.417,11.856c7.136,4.834,14.278,9.659,21.44,14.456
		c1.553,1.04,3.227,0.069,3.26-1.808c0.011-0.638,0.028-1.277,0.019-1.915c-0.01-0.638-0.057-1.276-0.075-1.915
		c-0.359-13.087-0.713-26.175-1.08-39.263c-0.045-1.595-0.131-3.19-0.237-4.782c-0.09-1.355-1.472-2.335-2.682-1.852
		c-2.363,0.945-4.691,1.974-7.044,2.943c-0.871,0.359-1.75,0.792-2.662,0.918c-0.537,0.074-1.329-0.229-1.696-0.639
		c-1.936-2.167-3.126-4.755-4.16-7.833c0.693-0.565,1.358-1.298,2.179-1.749c9.51-5.224,19.038-10.415,28.578-15.585
		c1.58-0.856,3.003-0.367,3.99,1.312c0.969,1.649,1.889,3.33,2.766,5.029c0.766,1.485,0.288,3.182-1.366,4.046
		c-8.529,4.454-7.167,4.738-6.977,13.655c0.481,22.668,0.935,45.336,1.426,68.003c0.069,3.186,0.269,6.37,0.453,9.553
		c0.072,1.253,1.679,2.263,2.786,1.765c2.315-1.041,4.609-2.132,7.13-3.304c3.132,2.542,4.698,5.821,5.584,9.805
		c-9.407,5.821-19.081,10.689-28.672,15.973c-3.494-1.982-4.313-5.528-5.849-8.396c0.504-2.855,2.93-3.44,4.777-4.532
		c2.142-1.266,3.274-2.928,3.158-5.429c-0.044-0.956,0.021-1.917-0.021-2.874c-0.867-19.838,2.619-13.789-13.718-24.959
		c-11.859-8.108-23.874-15.987-35.836-23.943C590.291,323.393,587.839,321.932,584.971,320.133z"/>
	<path d="M856.73,206.465c0.764-0.403,1.544-1.058,2.421-1.239c8.75-1.8,17.516-3.531,26.281-5.257
		c1.12-0.22,2.579,0.842,2.841,2.027c0.549,2.483,1.056,4.976,1.599,7.555c-0.844,0.657-1.487,1.415-2.302,1.739
		c-2.039,0.811-4.155,1.425-5.859,1.991c-1.114,1.542-0.944,2.856-0.708,4.084c2.591,13.482,5.221,26.958,7.861,40.43
		c0.446,2.277,1.701,3.246,4.006,3.169c1.592-0.053,3.199-0.35,4.766-0.196c0.781,0.077,1.911,0.772,2.148,1.446
		c0.737,2.093,1.175,4.299,1.627,6.482c0.323,1.559-0.833,3.021-2.624,3.365c-5.015,0.963-10.03,1.935-15.064,2.796
		c-2.938,0.503-3.972-0.325-4.604-3.351c-0.392-1.874-0.638-3.788-1.181-5.616c-0.241-0.809-1.055-1.448-1.816-2.434
		c-1.682,2.218-3.136,4.295-4.751,6.24c-8.303,10.004-19.126,14.726-31.977,14.505c-11.312-0.194-19.328-5.825-23.929-16.133
		c-1.028-2.304-1.651-4.83-2.167-7.315c-1.881-9.066-3.628-18.16-5.45-27.238c-0.249-1.243-0.435-2.563-1.017-3.651
		c-0.391-0.73-1.374-1.239-2.199-1.607c-0.527-0.235-1.255-0.087-1.884-0.022c-6,0.623-5.988,0.083-6.972-4.994
		c-0.24-1.24-0.392-2.498-0.553-3.752c-0.08-0.618,0.977-2.024,1.649-2.155c9.083-1.753,18.163-3.529,27.268-5.163
		c0.699-0.125,2.119,0.621,2.285,1.218c0.676,2.436,1.058,4.963,1.388,7.477c0.06,0.454-0.523,1.249-1.001,1.468
		c-1.734,0.797-3.554,1.406-5.333,2.107c-1.726,0.679-2.427,1.8-2.105,3.745c0.519,3.148,1.145,6.279,1.756,9.411
		c1.223,6.267,2.805,12.486,3.626,18.805c1.519,11.68,13.128,18.971,26.077,15c10.914-3.347,17.965-10.597,21.919-21.086
		c1.028-2.727,1.266-5.558,0.679-8.482c-1.444-7.2-2.76-14.425-4.163-21.634c-0.802-4.122-1.412-4.515-5.809-4.173
		c-1.262,0.098-2.545,0.183-3.795,0.05c-0.525-0.056-1.287-0.604-1.43-1.082C857.42,212.269,856.241,209.584,856.73,206.465z"/>
	<path d="M386.261,475.988c3.468,2.604,6.244,4.733,9.099,6.75c0.221,0.156,1.432-0.448,1.451-0.747
		c0.167-2.544,0.095-5.104,0.223-7.652c0.636-12.658,6.505-22.589,16.369-30.15c9.098-6.974,22.037-6.927,31.416-0.291
		c2.341,1.656,4.487,3.601,6.636,5.51c6.215,5.524,12.376,11.107,18.584,16.64c0.948,0.845,1.971,1.645,3.072,2.263
		c0.458,0.257,1.399,0.221,1.804-0.092c1.98-1.534,3.854-3.206,5.771-4.834c3.321,1.175,5.436,3.565,7.432,6.056
		c0.326,0.406,0.361,1.226,0.221,1.774c-0.149,0.583-0.611,1.122-1.033,1.594c-5.541,6.198-11.1,12.38-16.65,18.57
		c-0.878,0.979-1.878,1.716-3.48,1.761c-2.492-1.617-5.204-3.273-6.538-6.676c1.529-2.373,3.067-4.759,4.73-7.339
		c-0.913-1.138-1.571-2.221-2.471-3.038c-6.632-6.016-13.311-11.981-19.98-17.957c-0.714-0.64-1.478-1.224-2.196-1.859
		c-6.605-5.831-16.874-5.044-23.066-0.173c-5.494,4.322-9.01,9.93-10.694,16.621c-1.512,6.007-1.186,12.076,0.468,18.03
		c0.864,3.11,2.365,5.845,4.908,8.048c5.559,4.815,10.957,9.815,16.452,14.705c3.079,2.74,3.792,2.79,7.13-0.409
		c0.913-0.875,1.935-1.675,3.025-2.304c0.445-0.256,1.352-0.185,1.797,0.113c2.382,1.592,4.752,3.234,6.032,5.914
		c-0.246,0.635-0.329,1.335-0.713,1.768c-5.944,6.694-11.915,13.365-17.912,20.011c-1.187,1.315-2.981,1.455-4.262,0.347
		c-1.689-1.46-3.405-2.923-4.854-4.605c-0.451-0.523-0.213-1.795-0.019-2.663c0.125-0.562,0.727-1.029,1.148-1.509
		c3.903-4.452,3.647-4.921-0.272-8.442c-9.516-8.549-19.028-17.102-28.56-25.633c-0.948-0.848-1.96-1.656-3.05-2.3
		c-0.456-0.269-1.246-0.211-1.789-0.025c-0.572,0.197-1.103,0.658-1.525,1.12c-4.953,5.421-4.881,4.948-10.507-0.192
		c-0.47-0.429-0.876-0.929-1.312-1.397c-0.551-0.593-0.661-2.02-0.159-2.649C376.971,485.658,381.25,480.946,386.261,475.988z"/>
	<path d="M384.561,563.403c2.418-2.771,4.93-3.974,7.719-4.85c3.129,3.365,4.403,7.264,4.945,11.409
		c0.841,6.424,0.323,12.733-2.058,18.831c-2.709,6.937-6.642,13.058-12.006,18.243c-6.197,5.991-13.642,9.328-22.159,10.259
		c-5.187,0.567-10.198-0.604-15.02-2.307c-7.656-2.703-14.189-7.201-19.644-13.236c-4.839-5.354-7.783-11.624-9.001-18.719
		c-0.771-4.489-0.276-8.883,0.853-13.268c2.732-10.61,8.423-19.296,17.289-25.655c10.671-7.654,22.258-8.902,34.482-3.934
		c3.638,1.479,6.636,3.768,9.2,6.692c0.748,0.853,0.932,2.537,0.293,3.573c-1.339,2.171-2.685,4.339-4.084,6.472
		c-7.175,10.94-14.374,21.865-21.552,32.803c-1.751,2.667-3.4,5.402-5.202,8.035c-2.692,3.934-0.925,5.187,2.217,6.274
		c0.301,0.104,0.611,0.185,0.921,0.254c12.99,2.89,23.58-1.637,30.629-13.848c2.44-4.227,3.826-8.772,4.334-13.569
		c0.198-1.871,0.034-3.831-0.288-5.694C385.999,568.666,385.255,566.217,384.561,563.403z M328.399,576.912
		c0.721,7.411,2.928,13.236,7.913,17.796c0.941,0.861,2.557,0.749,3.352-0.306c0.576-0.764,1.176-1.514,1.696-2.315
		c7.819-12.048,15.631-24.102,23.429-36.164c0.516-0.797,0.92-1.668,1.355-2.516c0.491-0.954-0.206-2.604-1.324-3.146
		c-6.489-3.144-13.025-3.024-19.291,0.352c-7.947,4.281-13.175,10.964-15.759,19.614
		C329.046,572.651,328.741,575.199,328.399,576.912z"/>
	<path d="M1275.161,243.674c10.523,0.586,20.606,4.189,28.881,11.874c10.544,9.792,13.718,21.895,10.214,35.786
		c-0.714,2.83-2.287,5.25-3.966,7.595c-0.695,0.971-2.293,1.566-3.346,1.188c-1.801-0.646-3.6-1.301-5.376-2.012
		c-12.736-5.094-25.465-10.208-38.199-15.305c-2.962-1.186-5.964-2.275-8.906-3.508c-5.14-2.153-5.485-0.081-5.831,4.071
		c-1.075,12.911,6.118,21.412,14.812,25.611c3.771,1.822,7.728,3.036,11.87,3.531c6.228,0.744,12.032-0.517,17.42-3.824
		c2.169-1.332,3.105-1.066,4.948,0.804c0.894,0.908,1.732,1.874,2.55,2.854c1.061,1.273,0.739,2.981-0.691,4.145
		c-3.777,3.071-8.013,5.078-12.781,6.211c-5.419,1.288-10.704,1.111-16.122,0.024c-7.663-1.537-14.683-4.449-20.707-9.393
		c-11.066-9.081-15.453-20.736-12.802-34.907c1.684-8.996,5.438-17.003,11.715-23.703
		C1255.752,247.341,1264.368,243.77,1275.161,243.674z M1304.858,281.451c0.122-6.827-2.278-11.926-6.407-16.241
		c-5.023-5.25-11.282-8.515-18.351-9.678c-10.783-1.774-19.458,1.897-25.457,11.275c-0.423,0.661-0.122,2.201,0.556,2.55
		c1.12,0.578,2.229,1.198,3.397,1.662c11.275,4.483,22.561,8.939,33.846,13.397c2.672,1.056,5.343,2.119,8.033,3.125
		c1.457,0.544,3.38-0.551,3.693-2.087C1304.486,283.896,1304.71,282.318,1304.858,281.451z"/>
	<path d="M1392.299,359.432c2.947,1.554,5.064,3.922,4.91,6.782c-0.18,3.324-3.756,3.937-6.332,4.907
		c-7.127,2.686-14.472,2.488-21.653,0.489c-8.435-2.348-15.887-6.652-21.866-13.158c-9.144-9.949-12.038-21.467-8.285-34.546
		c2.437-8.489,6.931-15.742,13.381-21.723c10.024-9.295,21.823-11.419,34.697-7.781c7.148,2.021,13.431,5.835,18.804,11.036
		c6.691,6.474,10.803,14.31,11.234,23.627c0.442,9.542-1.745,18.341-9.117,24.835c-2.465,0.227-4.009-0.967-5.634-1.916
		c-13.771-8.04-27.531-16.098-41.31-24.123c-2.197-1.28-4.458-2.452-6.717-3.623c-1.14-0.591-2.722,0.098-3.183,1.181
		c-4.474,10.502-0.331,23.003,8.89,29.8c5.263,3.879,11.158,6.198,17.592,6.934c2.474,0.283,5.091-0.099,7.566-0.576
		C1387.729,361.104,1390.084,360.129,1392.299,359.432z M1377.14,304.265c-7.401,0.031-13.519,2.959-18.333,8.777
		c-0.488,0.589-0.345,2.146,0.254,2.608c0.751,0.58,1.463,1.232,2.278,1.706c12.698,7.376,25.398,14.752,38.129,22.073
		c3.661,2.105,4.966,1.508,6.192-2.463c1.468-4.755,1.176-9.353-0.556-14.048C1402.057,314.653,1390.235,304.168,1377.14,304.265z"
		/>
	<path d="M733.262,316.615c-12.476-0.145-21.997-4.619-29.014-13.846c-7.228-9.505-10.506-20.34-9.473-32.291
		c0.652-7.546,3.592-14.281,8.938-19.652c11.44-11.492,25.396-15.564,41.194-12.518c7.749,1.494,14.07,5.962,18.901,12.235
		c7.978,10.356,11.244,22.119,9.362,35.06c-1.192,8.196-5.362,14.973-11.742,20.244
		C753.021,312.794,743.237,316.177,733.262,316.615z M735.211,249.243c-8.008,0.003-15.033,2.638-20.984,7.996
		c-5.031,4.53-7.668,10.375-7.555,17.015c0.164,9.639,3.546,18.158,10.98,24.635c5.045,4.396,11.08,6.422,17.741,5.78
		c6.131-0.592,11.846-2.66,16.757-6.51c6.795-5.328,9.964-12.447,9.33-20.982c-0.533-7.158-3.083-13.71-7.811-19.23
		C748.843,252.312,742.741,249.235,735.211,249.243z"/>
	<path d="M1519.099,478.113c0.214-6.296,2.108-12.015,5.306-17.278c5.112-8.413,12.217-14.761,21.22-18.677
		c11.278-4.906,22.415-4.282,32.926,2.305c8.625,5.404,14.944,12.858,18.625,22.414c3.496,9.078,3.442,18.229-0.76,26.959
		c-6.13,12.739-16.121,21.061-29.93,24.752c-7.141,1.909-13.984,1.069-20.547-1.807c-12.683-5.558-21.144-15.14-25.316-28.307
		C1519.582,485.191,1519.58,481.576,1519.099,478.113z M1559.742,451.086c-0.318,0.019-1.281,0.021-2.228,0.144
		s-1.896,0.299-2.811,0.568c-9.412,2.765-16.29,8.65-20.648,17.346c-3.684,7.351-3.402,14.807,0.378,22.098
		c2.395,4.619,5.779,8.396,10.019,11.411c4.595,3.269,9.704,4.697,15.334,4.434c3.907-0.183,7.57-1.16,10.947-3.112
		c5.349-3.094,9.784-7.166,12.882-12.562c4.667-8.131,4.817-16.401,0.401-24.658c-2.768-5.173-6.702-9.326-11.821-12.255
		C1568.547,452.414,1564.666,451.023,1559.742,451.086z"/>
	<path d="M1100.807,199.375c0.926-2.954,1.606-5.081,2.26-7.217c2.604-8.512,8.407-13.234,17.107-14.712
		c3.496-0.594,6.96-0.822,10.475-0.397c1.062,0.129,2.453,1.602,2.374,2.617c-0.196,2.516-0.345,5.049-1.64,7.53
		c-2.562,0.398-5.12,0.557-7.539,1.22c-5.493,1.505-8.702,5.286-9.838,11.701c-0.069,0.393,0.62,1.141,1.118,1.367
		c1.149,0.521,2.373,0.973,3.612,1.187c4.688,0.807,4.97,1.43,4.193,6.515c-0.238,1.556-0.566,3.097-0.814,4.43
		c-2.957,1.948-5.893,0.277-8.68,0.773c-1.096,0.195-1.698,0.903-2.044,1.754c-0.353,0.869-0.419,1.862-0.557,2.808
		c-1.195,8.212-2.385,16.424-3.562,24.638c-0.635,4.422-1.278,8.844-1.843,13.276c-0.16,1.255-0.158,2.551-0.047,3.813
		c0.084,0.958,0.621,1.793,1.653,2.053c1.854,0.468,3.735,0.835,5.583,1.328c1.683,0.448,2.487,1.69,2.296,3.64
		c-0.187,1.899-0.493,3.789-0.817,5.67c-0.183,1.064-1.818,2.366-2.76,2.249c-4.749-0.592-9.5-1.172-14.241-1.823
		c-4.425-0.608-8.84-1.28-13.253-1.964c-1.624-0.252-2.718-1.822-2.486-3.516c0.259-1.897,0.556-3.791,0.893-5.676
		c0.303-1.698,1.472-2.6,3.492-2.321c6.874,0.948,7.136-0.062,7.948-6.02c1.681-12.333,3.436-24.655,5.151-36.982
		c0.132-0.947,0.209-1.902,0.284-2.856c0.088-1.119-0.957-2.515-2.181-2.796c-1.862-0.428-3.767-0.695-5.602-1.212
		c-0.479-0.135-1.09-0.934-1.095-1.433c-0.022-2.213,0.065-4.438,0.288-6.642c0.18-1.787,1.502-2.964,3.133-2.992
		C1095.871,199.347,1098.073,199.375,1100.807,199.375z"/>
	<path d="M938.965,268.072c-1.985-2.849-1.803-6.027-1.441-9.195c0.058-0.509,0.696-1.253,1.182-1.359
		c1.854-0.405,3.758-0.574,5.637-0.867c1.68-0.262,2.92-1.628,2.848-3.289c-0.61-14.029-1.249-28.057-1.896-42.084
		c-0.029-0.63-0.219-1.254-0.333-1.88c-0.208-1.146-1.355-2.125-2.726-2.25c-1.899-0.174-3.814-0.225-5.697-0.499
		c-0.512-0.075-1.195-0.682-1.355-1.186c-0.884-2.781-0.886-5.647-0.319-8.483c0.096-0.483,0.868-1.142,1.374-1.184
		c5.394-0.457,10.795-0.826,16.198-1.167c1.094-0.069,2.583,1.258,2.712,2.303c0.43,3.475,0.787,6.959,1.293,10.422
		c0.065,0.446,0.812,0.844,1.315,1.146c0.185,0.111,0.661-0.028,0.861-0.21c1.876-1.708,3.694-3.479,5.58-5.176
		c6.051-5.445,13.095-9.062,20.953-11.047c1.817-0.459,3.779-0.43,5.675-0.437c0.472-0.002,1.188,0.635,1.381,1.136
		c1.048,2.729,1.242,5.584,0.762,8.454c-0.092,0.555-0.563,1.29-1.045,1.487c-1.164,0.476-2.434,0.696-3.667,0.996
		c-5.279,1.284-10.48,2.778-15.289,5.401c-3.669,2-7.052,4.359-9.806,7.547c-3.026,3.502-5.033,7.589-4.926,12.169
		c0.193,8.283,0.892,16.555,1.453,24.827c0.035,0.506,0.675,1.011,1.114,1.433c0.202,0.194,0.601,0.178,0.906,0.27
		c2.354,0.71,5.479-1.047,7.107,1.47c1.583,2.448,1.259,5.525,0.901,8.385c-0.063,0.509-0.688,1.063-1.191,1.37
		c-0.521,0.317-1.203,0.467-1.825,0.504c-8.282,0.483-16.565,0.952-24.85,1.37C940.918,268.496,939.969,268.211,938.965,268.072z"/>
	<path d="M342.677,674.448c0,0.797,0.206,1.506-0.03,2.009c-3.789,8.083-7.618,16.148-11.481,24.196
		c-0.76,1.582-2.527,2.281-3.981,1.658c-1.756-0.753-3.495-1.555-5.197-2.421c-1.395-0.71-2.011-2.482-1.316-4.107
		c2.734-6.385,3.063-6.366-4.15-9.775c-10.665-5.04-21.31-10.122-31.946-15.223c-1.715-0.823-3.408-1.615-5.382-1.849
		c-0.704,0.797-1.497,1.408-1.916,2.213c-3.291,6.331-3.351,5.99-9.29,3.046c-0.847-0.42-1.849-0.773-2.407-1.46
		c-0.533-0.656-1.048-1.917-0.765-2.552c2.199-4.936,4.573-9.795,6.943-14.653c0.507-1.038,2.144-1.478,3.385-1.007
		c3.269,1.24,6.523,2.52,9.795,3.752c0.269,0.101,0.763,0.08,0.92-0.094c0.365-0.404,0.931-1.048,0.816-1.399
		c-1.683-5.17-3.143-10.368-3.315-15.86c-0.181-5.769,0.053-11.481,1.841-17.029c0.293-0.909,0.652-1.797,1.006-2.685
		c0.437-1.097,2.083-1.904,3.153-1.482c1.772,0.699,3.553,1.396,5.264,2.23c2.633,1.284,3.029,2.418,2.262,5.418
		c-0.867,3.394-1.823,6.776-2.463,10.215c-1.065,5.726-0.764,11.415,0.884,17.042c1.704,5.818,5.022,10.263,10.538,12.922
		c6.605,3.184,13.224,6.342,19.856,9.468c1.915,0.902,3.336,0.268,4.636-1.902c0.815-1.362,1.541-2.784,2.44-4.087
		c0.597-0.865,1.631-0.988,2.555-0.606c1.764,0.729,3.507,1.523,5.199,2.407C341.35,673.258,342.031,673.95,342.677,674.448z"/>
	<path d="M1162.327,221.805c0.032-3.441,0.359-6.536,2.057-9.333c0.287-0.474,0.98-0.731,1.528-1.002
		c0.257-0.127,0.635-0.127,0.925-0.055c4.951,1.224,9.904,2.444,14.842,3.719c1.638,0.422,2.471,1.888,2.187,3.696
		c-0.542,3.457-1.153,6.903-1.62,10.369c-0.04,0.294,0.961,1.102,1.197,1.002c2.033-0.856,4.022-1.827,5.985-2.838
		c9.103-4.691,18.749-5.999,28.822-4.704c1.731,0.223,2.723,1.568,2.477,3.379c-0.172,1.263-0.312,2.543-0.637,3.771
		c-0.971,3.666-1.822,4.679-6.015,4.427c-3.499-0.21-7.021-0.223-10.526-0.115c-5.17,0.158-10.078,1.52-14.756,3.707
		c-5.812,2.717-9.874,6.994-11.473,13.304c-1.803,7.111-3.486,14.252-5.186,21.389c-0.485,2.04,0.038,3.513,2.639,4.189
		c1.23,0.32,2.423,0.806,3.61,1.27c1.374,0.537,1.978,1.612,1.87,2.932c-0.211,2.582-0.817,5.052-2.159,7.272
		c-0.277,0.458-1.017,0.671-1.581,0.905c-0.271,0.112-0.646,0.073-0.947-0.002c-8.354-2.079-16.715-4.136-25.052-6.283
		c-2.759-0.71-3.522-2.094-2.822-4.987c0.447-1.846,1.067-3.67,1.822-5.412c0.365-0.842,1.262-1.394,2.348-1.161
		c1.557,0.333,3.103,0.731,4.67,1c1.745,0.298,3.172-0.598,3.606-2.34c3.479-13.927,6.93-27.861,10.363-41.799
		c0.149-0.604,0.188-1.31,0.021-1.896c-0.157-0.558-0.538-1.272-1.015-1.485C1167.214,223.696,1164.854,222.814,1162.327,221.805z"
		/>
	<path d="M540.395,426.61c-3.221,4.581-5.784,6.697-10.575,9.152c-3.237,1.658-6.646,2.128-10.201,1.995
		c-2.58-0.097-5.008-0.714-7.372-1.809c-3.822-1.77-7.15-4.217-10.065-7.188c-2.9-2.957-5.655-6.062-8.376-9.187
		c-4.399-5.05-8.699-10.188-13.09-15.245c-1.021-1.176-2.24-2.179-3.557-3.443c-2.55,1.782-4.859,3.396-7,4.894
		c-0.89-0.295-1.632-0.314-1.982-0.695c-1.721-1.872-3.395-3.795-4.962-5.796c-0.619-0.791-0.453-1.853,0.221-2.603
		c1.482-1.652,3.107-3.18,4.544-4.868c0.308-0.361,0.288-1.306,0.036-1.777c-0.593-1.111-1.347-2.158-2.16-3.126
		c-3.075-3.665-6.229-7.264-9.297-10.935c-2.288-2.738-2.145-3.707,0.813-6.262c1.202-1.039,2.473-2.001,3.741-2.961
		c0.988-0.748,2.571-0.579,3.466,0.377c1.306,1.397,2.593,2.813,3.848,4.257c2.51,2.889,4.951,5.84,7.512,8.683
		c0.809,0.897,1.909,1.532,2.759,2.196c4.639-1.625,6.832-6.25,11.51-7.668c2.724,2.062,4.965,4.631,6.528,7.499
		c-0.606,2.39-2.38,3.33-3.734,4.617c-1.616,1.536-3.285,3.016-4.911,4.542c-0.56,0.526-0.61,2.007-0.133,2.664
		c0.562,0.773,1.1,1.569,1.719,2.295c5.383,6.308,10.706,12.671,16.214,18.869c2.315,2.605,4.87,5.058,7.604,7.215
		c3.863,3.046,8.273,3.151,12.623,1.083c1.993-0.948,3.746-2.401,5.61-3.621c1.174-0.768,2.654-0.741,3.461,0.108
		C537.156,421.943,539.271,423.909,540.395,426.61z"/>
	<path d="M633.184,1731.147c-14.481-0.016-28.067-10.575-31.514-24.063c-0.969-3.79-1.109-7.593-0.333-11.389
		c1.977-9.653,6.44-17.964,13.656-24.745c5.327-5.007,11.72-7.62,18.91-8.38c4.222-0.446,8.279,0.663,12.227,1.896
		c3.341,1.043,6.448,2.719,9.348,4.767c7.644,5.396,11.562,12.84,11.216,22.07c-0.531,14.209-6.648,25.812-17.937,34.485
		C644.107,1729.361,638.735,1731.364,633.184,1731.147z"/>
	<path d="M1568.18,1583.16c0.258,7.034-1.646,14.087-5.434,20.554c-7.404,12.639-17.983,21.447-32.094,25.771
		c-9.899,3.033-19.586,2.225-28.983-1.974c-2.614-1.168-5.222-2.483-7.554-4.125c-11.861-8.35-20.439-19.165-24.506-33.288
		c-2.963-10.29-2.249-20.394,2.564-29.859c7.961-15.657,20.408-25.809,37.819-29.769c9.553-2.173,26.623,1.278,34.487,10.185
		c4.652,5.269,9.501,10.363,14.272,15.526C1565.811,1563.819,1568.345,1574.208,1568.18,1583.16z"/>
	<path d="M1269.303,1721.165c-1.599-1.569-2.004-3.812-2.289-5.995c-2.411-18.413,3.529-33.462,18.779-44.248
		c12.139-8.586,25.809-12.594,40.734-10.976c13.72,1.487,23.78,8.581,30.039,20.946c0.513,1.012-0.062,2.818-1.081,3.34
		c-1.418,0.727-2.832,1.468-4.289,2.108c-25.14,11.047-50.28,22.093-75.441,33.09
		C1273.748,1720.308,1271.848,1721.757,1269.303,1721.165z"/>
</g>
</svg>
